<svg version="1.1" xmlns="http://www.w3.org/2000/svg" xmlns:xlink="http://www.w3.org/1999/xlink" viewBox="0 0 172 172"><g fill="none" fill-rule="nonzero" stroke="none" stroke-width="1" stroke-linecap="butt" stroke-linejoin="miter" stroke-miterlimit="10" stroke-dasharray="" stroke-dashoffset="0" font-family="none" font-weight="none" font-size="none" text-anchor="none" style="mix-blend-mode: normal"><path d="M0,172v-172h172v172z" fill="none"></path><g><path d="M87.20938,132.225v-29.69687v-28.4875h-72.69688v51.46563c0,3.7625 2.95625,6.71875 6.71875,6.71875z" fill="#a34343"></path><path d="M86,113.68125h-71.4875v11.825c0,3.7625 2.95625,6.71875 6.71875,6.71875h64.76875z" fill="#a34343"></path><path d="M87.20938,103.06563c-2.41875,0 -4.70312,0 -7.12188,-0.13437c-4.03125,-0.13437 -7.525,3.09063 -7.525,7.25625l0,44.20937c0,3.62813 2.82188,6.58438 6.31562,6.71875c2.6875,0.13438 5.50938,0.13438 8.33125,0.13438c40.17813,0 72.69687,-13.03438 72.69687,-29.025v-58.18437c0,15.99062 -32.51875,29.025 -72.69687,29.025z" fill="#a34343"></path><path d="M87.20938,44.88125c-40.17812,0 -72.69688,13.03437 -72.69688,29.025h72.69688l-9.40625,18.54375c-2.41875,4.8375 0.94062,10.48125 6.45,10.61562c0.94063,0 2.01563,0 3.09063,0c0.94062,0 2.01563,0 2.95625,0c4.03125,0 7.25625,3.225 7.25625,7.25625v25.66563c0,4.03125 3.225,7.12188 7.12188,7.25625v0c3.89688,0 7.12187,-3.225 7.12187,-7.12187v-28.62188c0,-3.49375 2.55313,-6.45 5.9125,-7.12188h0.26875c4.43437,-0.80625 8.6,2.55313 8.6,7.12188v13.975c0,4.03125 3.225,7.12188 7.12188,7.25625v0c3.89687,0 7.12187,-3.225 7.12187,-7.12188l0.13437,-23.38125c0,-2.6875 1.47813,-5.10625 3.89688,-6.31563c7.25625,-3.7625 12.22812,-8.19687 14.24375,-13.03437c0.67188,-1.6125 0.94063,-3.225 0.94063,-4.70312c-0.13438,-16.25938 -32.65313,-29.29375 -72.83125,-29.29375z" fill="#ffcaca"></path><path d="M159.90625,78.07188c-2.28438,0 -4.03125,-1.74688 -4.03125,-4.03125c0,-11.825 -28.21875,-24.99375 -68.66562,-24.99375c-36.55,0 -63.425,10.61563 -69.06875,20.9625h36.28125c2.28438,0 4.03125,1.74687 4.03125,4.03125c0,2.28437 -1.74687,4.03125 -4.03125,4.03125h-38.02813c-2.28438,0 -4.3,-1.075 -5.64375,-2.95625c-1.34375,-1.74687 -1.6125,-4.16562 -0.94062,-6.18125c5.50937,-16.25938 38.02813,-28.08437 77.4,-28.08437c43.67187,0 76.72812,14.24375 76.72812,33.19063c0,2.15 -1.74687,4.03125 -4.03125,4.03125zM133.56875,132.7625c-2.95625,0 -5.77812,-1.20937 -7.92812,-3.35937c-2.15,-2.15 -3.225,-4.97187 -3.225,-7.92812c0,-2.28438 1.74688,-4.03125 4.03125,-4.03125v0c2.28437,0 4.03125,1.88125 4.03125,4.03125c0,0.80625 0.26875,1.6125 0.94062,2.28437c0.67188,0.67188 1.34375,0.94063 2.28438,0.94063c1.74687,0 3.09062,-1.34375 3.09062,-3.09063l0.13438,-23.38125c0,-4.16562 2.28438,-8.0625 6.04688,-9.94375c1.20937,-0.5375 2.28438,-1.20938 3.225,-1.88125c1.88125,-1.20937 4.43438,-0.5375 5.50938,1.34375c1.20937,1.88125 0.5375,4.43438 -1.34375,5.50937c-1.20938,0.67188 -2.41875,1.47812 -3.7625,2.15c-0.94063,0.5375 -1.6125,1.6125 -1.6125,2.82187l-0.13438,23.38125c-0.13437,6.04688 -5.10625,11.15313 -11.2875,11.15313z" fill="#000000"></path><path d="M104.54375,147.14063c-2.95625,0 -5.77813,-1.20937 -7.92813,-3.35937c-2.15,-2.15 -3.225,-4.97188 -3.225,-7.92812v-11.15313c0,-2.28438 1.88125,-4.03125 4.03125,-4.03125c2.28437,0 4.03125,1.88125 4.03125,4.03125v11.15313c0,0.80625 0.26875,1.6125 0.94062,2.28437c0.67188,0.67188 1.34375,0.94063 2.28438,0.94063c1.74687,0 3.09062,-1.34375 3.09062,-3.09062l0,-28.4875c0,-5.375 3.89688,-10.07812 9.27188,-11.01875h0.13437c3.35938,-0.67187 6.71875,0.26875 9.27188,2.41875c2.55313,2.15 4.03125,5.375 4.03125,8.73438c0,2.15 -1.88125,4.03125 -4.03125,4.03125v0c-2.28437,0 -4.03125,-1.88125 -4.03125,-4.03125c0,-1.34375 -0.67187,-2.15 -1.20938,-2.41875c-0.40312,-0.40313 -1.34375,-0.94063 -2.6875,-0.67187h-0.13437c-1.47812,0.26875 -2.6875,1.6125 -2.6875,3.225l-0.13437,28.4875c0.13437,5.9125 -4.8375,10.88438 -11.01875,10.88438z" fill="#000000"></path><path d="M97.42188,114.21875v0c-2.28437,0 -4.03125,-1.88125 -4.03125,-4.03125c0,-0.80625 -0.26875,-1.6125 -0.94062,-2.28437c-0.5375,-0.5375 -1.34375,-0.94063 -2.15,-0.94063c-2.15,0 -4.16562,0 -6.31562,0c-3.89687,-0.13437 -7.39062,-2.15 -9.40625,-5.50937c-2.01562,-3.35937 -2.15,-7.39062 -0.40313,-10.88437l9.54063,-18.67812c1.075,-2.01562 3.49375,-2.82188 5.375,-1.74688c2.01563,1.075 2.82187,3.49375 1.74687,5.375l-9.54062,18.67812c-0.67187,1.34375 -0.13438,2.55313 0.13437,2.95625c0.26875,0.40312 1.075,1.47812 2.6875,1.47812c2.01563,0 4.03125,0 6.04688,0c2.95625,0 5.9125,1.075 7.92813,3.225c2.15,2.15 3.35938,4.97187 3.35938,8.0625c0,2.55312 -1.88125,4.3 -4.03125,4.3zM69.06875,78.07188c-0.26875,0 -0.5375,0 -0.80625,-0.13438c-0.26875,0 -0.5375,-0.13438 -0.80625,-0.26875c-0.26875,-0.13438 -0.5375,-0.26875 -0.67187,-0.40313c-0.26875,-0.13438 -0.40313,-0.26875 -0.5375,-0.5375c-0.80625,-0.80625 -1.20938,-1.74688 -1.20938,-2.82188c0,-0.26875 0,-0.5375 0.13438,-0.80625c0,-0.26875 0.13438,-0.5375 0.26875,-0.80625c0.13438,-0.26875 0.26875,-0.5375 0.40313,-0.67187c0.13438,-0.26875 0.26875,-0.40313 0.5375,-0.67187c0.13438,-0.13438 0.40313,-0.40313 0.5375,-0.5375c0.26875,-0.13437 0.40312,-0.26875 0.67188,-0.40312c0.26875,-0.13438 0.5375,-0.13438 0.80625,-0.26875c1.34375,-0.26875 2.6875,0.13438 3.62813,1.075c0.13437,0.13438 0.40312,0.40312 0.5375,0.67188c0.13438,0.26875 0.26875,0.40312 0.40313,0.67188c0.13437,0.26875 0.13437,0.5375 0.26875,0.80625c0,0.26875 0.13438,0.5375 0.13438,0.80625c0,0.26875 0,0.5375 -0.13438,0.80625c0,0.26875 -0.13438,0.5375 -0.26875,0.80625c-0.13438,0.26875 -0.26875,0.5375 -0.40313,0.67188c-0.13438,0.26875 -0.26875,0.40312 -0.5375,0.67188c-0.94063,0.94062 -1.88125,1.34375 -2.95625,1.34375z" fill="#000000"></path><g fill="#000000"><path d="M87.20938,165.28125c-2.6875,0 -5.24062,0 -7.92812,-0.13438c-6.04687,-0.26875 -10.75,-5.24062 -10.75,-11.2875l0.13437,-36.81875c0,-2.28437 1.74688,-4.03125 4.03125,-4.03125v0c2.28438,0 4.03125,1.88125 4.03125,4.03125l-0.13438,36.81875c0,1.74687 1.34375,3.225 3.09063,3.225c2.55312,0.13438 5.10625,0.13438 7.525,0.13438c40.44688,0 68.66563,-13.16875 68.66563,-24.99375c0,-2.28437 1.74687,-4.03125 4.03125,-4.03125c2.28438,0 4.03125,1.74688 4.03125,4.03125c0,18.8125 -33.05625,33.05625 -76.72812,33.05625z"></path></g><g fill="#000000"><path d="M72.5625,136.25625h-50.79375c-6.18125,0 -11.2875,-5.10625 -11.2875,-11.2875v-36.41562c0,-2.28438 1.74688,-4.03125 4.03125,-4.03125c2.28437,0 4.03125,1.74687 4.03125,4.03125v36.41562c0,1.74688 1.47812,3.225 3.225,3.225h50.79375c2.28437,0 4.03125,1.74688 4.03125,4.03125c0,2.28438 -1.74688,4.03125 -4.03125,4.03125z"></path></g><g fill="#000000"><path d="M159.90625,104.94688c-2.28438,0 -4.03125,-1.74687 -4.03125,-4.03125v-26.875c0,-2.28437 1.74687,-4.03125 4.03125,-4.03125c2.28438,0 4.03125,1.74688 4.03125,4.03125v26.875c0,2.15 -1.74687,4.03125 -4.03125,4.03125z"></path></g><g fill="#000000"><path d="M159.90625,121.07188c-0.26875,0 -0.5375,0 -0.80625,-0.13437c-0.26875,0 -0.5375,-0.13437 -0.80625,-0.26875c-0.26875,-0.13438 -0.40312,-0.26875 -0.67187,-0.40313c-0.26875,-0.13437 -0.40312,-0.26875 -0.67187,-0.5375c-0.13438,-0.13437 -0.40312,-0.40312 -0.5375,-0.67187c-0.13437,-0.26875 -0.26875,-0.40312 -0.40312,-0.67187c-0.13437,-0.26875 -0.13437,-0.5375 -0.26875,-0.80625c0,-0.26875 -0.13437,-0.5375 -0.13437,-0.80625c0,-0.26875 0,-0.5375 0.13437,-0.80625c0,-0.26875 0.13438,-0.5375 0.26875,-0.80625c0.13438,-0.26875 0.26875,-0.5375 0.40312,-0.67187c0.13438,-0.26875 0.26875,-0.40313 0.5375,-0.67187c0.13437,-0.13437 0.40312,-0.40313 0.67188,-0.5375c0.26875,-0.13437 0.40312,-0.26875 0.67188,-0.40313c0.26875,-0.13437 0.5375,-0.13437 0.80625,-0.26875c0.5375,-0.13437 1.075,-0.13437 1.6125,0c0.26875,0 0.5375,0.13437 0.80625,0.26875c0.26875,0.13437 0.5375,0.26875 0.67188,0.40313c0.26875,0.13437 0.40312,0.26875 0.67188,0.5375c0.13437,0.13437 0.40312,0.40312 0.5375,0.67188c0.13438,0.26875 0.26875,0.40312 0.40312,0.67188c0.13438,0.26875 0.13438,0.5375 0.26875,0.80625c0,0.26875 0.13438,0.5375 0.13438,0.80625c0,0.26875 0,0.5375 -0.13438,0.80625c0,0.26875 -0.13437,0.5375 -0.26875,0.80625c-0.13437,0.26875 -0.26875,0.5375 -0.40312,0.67188c-0.13437,0.26875 -0.26875,0.40313 -0.5375,0.67188c-0.13438,0.13437 -0.40313,0.40313 -0.67187,0.5375c-0.26875,0.13437 -0.40313,0.26875 -0.67187,0.40313c-0.26875,0.13437 -0.5375,0.13437 -0.80625,0.26875c-0.26875,0 -0.5375,0.13437 -0.80625,0.13437z"></path></g></g></g></svg>