<svg version="1.1" xmlns="http://www.w3.org/2000/svg" xmlns:xlink="http://www.w3.org/1999/xlink" viewBox="0 0 172 172"><g fill="none" fill-rule="nonzero" stroke="none" stroke-width="none" stroke-linecap="butt" stroke-linejoin="none" stroke-miterlimit="10" stroke-dasharray="" stroke-dashoffset="0" font-family="none" font-weight="none" font-size="none" text-anchor="none" style="mix-blend-mode: normal"><path d="M0,172v-172h172v172z" fill="none" stroke="none" stroke-width="1" stroke-linejoin="miter"></path><g><path d="M139.75,41.65625h-65.74834c-1.78181,0 -3.49106,-0.70816 -4.7515,-1.96725l-10.84541,-10.84541c-1.25909,-1.26044 -2.96834,-1.96859 -4.75016,-1.96859h-28.12334c-3.71009,0 -6.71875,3.00866 -6.71875,6.71875v14.78125v83.3125c0,7.42153 6.01597,13.4375 18.8125,13.4375h8.0625v-4.44109c-2.46847,-2.2145 -4.03125,-5.41934 -4.03125,-8.99641c0,-6.67978 5.41397,-12.09375 12.09375,-12.09375c6.67978,0 12.09375,5.41397 12.09375,12.09375c0,3.57706 -1.56278,6.78191 -4.03125,8.99641v4.44109h48.375v-4.44109c-2.46847,-2.2145 -4.03125,-5.41934 -4.03125,-8.99641c0,-6.67978 5.41397,-12.09375 12.09375,-12.09375c6.67978,0 12.09375,5.41397 12.09375,12.09375c0,3.57706 -1.56278,6.78191 -4.03125,8.99641v4.44109h18.8125c2.04653,0 8.0625,-6.01597 8.0625,-13.4375v-76.59375c0,-7.42153 -6.01597,-13.4375 -13.4375,-13.4375" fill="#f6e5ab" stroke="none" stroke-width="1" stroke-linejoin="miter"></path><path d="M53.65459,26.875h-28.12334c-3.71009,0 -6.71875,3.00866 -6.71875,6.71875v14.78125v83.3125v0c0,2.98178 0.97019,5.73647 2.96163,7.96441c7.72925,-43.41656 48.15059,-85.90191 91.77275,-85.90191h39.57478c-0.67456,-6.79131 -6.40297,-12.09375 -13.37166,-12.09375h-65.74834c-1.78181,0 -3.49106,-0.70816 -4.7515,-1.96725l-10.84541,-10.84541c-1.25909,-1.26044 -2.96834,-1.96859 -4.75016,-1.96859" fill="#fcf7e6" stroke="none" stroke-width="1" stroke-linejoin="miter"></path><path d="M137.0625,72.5625h-37.625c-2.22659,0 -4.03125,-1.80466 -4.03125,-4.03125c0,-2.22659 1.80466,-4.03125 4.03125,-4.03125h37.625c2.22659,0 4.03125,1.80466 4.03125,4.03125c0,2.22659 -1.80466,4.03125 -4.03125,4.03125zM137.0625,88.6875h-37.625c-2.22659,0 -4.03125,-1.80466 -4.03125,-4.03125c0,-2.22659 1.80466,-4.03125 4.03125,-4.03125h37.625c2.22659,0 4.03125,1.80466 4.03125,4.03125c0,2.22659 -1.80466,4.03125 -4.03125,4.03125zM120.9375,104.8125h-21.5c-2.22659,0 -4.03125,-1.80466 -4.03125,-4.03125c0,-2.22659 1.80466,-4.03125 4.03125,-4.03125h21.5c2.22659,0 4.03125,1.80466 4.03125,4.03125c0,2.22659 -1.80466,4.03125 -4.03125,4.03125z" fill="#cd928d" stroke="none" stroke-width="1" stroke-linejoin="miter"></path><path d="M73.90625,69.76481c0,13.49662 -6.61797,20.26644 -14.78125,20.26644c-8.16328,0 -14.78125,-6.76981 -14.78125,-20.26644c0,-8.10281 6.61797,-14.67106 14.78125,-14.67106c8.16328,0 14.78125,6.56825 14.78125,14.67106z" fill="#efd5be" stroke="none" stroke-width="1" stroke-linejoin="miter"></path><path d="M59.125,90.03125c-18.8125,0 -24.1875,16.125 -24.1875,16.125v4.03125h48.375v-4.03125c0,0 -6.71875,-16.125 -24.1875,-16.125z" fill="#c7d6e2" stroke="none" stroke-width="1" stroke-linejoin="miter"></path><path d="M34.9375,110.18884c-0.42194,0 -0.85194,-0.06719 -1.27522,-0.20828c-2.11237,-0.70278 -3.25322,-2.98716 -2.54909,-5.09819c2.17688,-6.53197 10.83331,-18.88238 28.01181,-18.88238c19.92781,0 27.59122,17.84634 27.90969,18.60556c0.85597,2.05594 -0.11556,4.41556 -2.1715,5.27288c-2.05459,0.85866 -4.41556,-0.11825 -5.27153,-2.17016c-0.23113,-0.54288 -5.99178,-13.64578 -20.46666,-13.64578c-15.72456,0 -20.31884,13.23594 -20.36319,13.36763c-0.56303,1.69044 -2.13656,2.75872 -3.82431,2.75872z" fill="#000000" stroke="none" stroke-width="1" stroke-linejoin="miter"></path><path d="M59.125,94.0625c-12.99541,0 -18.8125,-12.20394 -18.8125,-24.29769c0,-10.31194 8.43875,-18.70231 18.8125,-18.70231c10.37375,0 18.8125,8.39037 18.8125,18.70231c0,12.09375 -5.81709,24.29769 -18.8125,24.29769zM59.125,59.125c-5.92728,0 -10.75,4.773 -10.75,10.63981c0,10.01497 4.11859,16.23519 10.75,16.23519c6.63141,0 10.75,-6.22022 10.75,-16.23519c0,-5.86681 -4.82272,-10.63981 -10.75,-10.63981z" fill="#000000" stroke="none" stroke-width="1" stroke-linejoin="miter"></path><path d="M139.75,41.65625h-65.74834c-1.78181,0 -3.49106,-0.70816 -4.7515,-1.96725l-10.84541,-10.84541c-1.25909,-1.26044 -2.96834,-1.96859 -4.75016,-1.96859h-28.12334c-3.71009,0 -6.71875,3.00866 -6.71875,6.71875v98.09375c0,7.42153 6.01597,13.4375 13.4375,13.4375h13.4375v-4.44244c-2.43219,-2.17553 -3.98019,-5.31453 -4.02991,-8.82306c-0.09138,-6.50106 5.22988,-12.07091 11.72959,-12.26172c6.84506,-0.19887 12.45656,5.29034 12.45656,12.08972c0,3.57841 -1.56009,6.78459 -4.03125,8.99506v4.44244h48.375v-4.44244c-2.43219,-2.17553 -3.98019,-5.31453 -4.02991,-8.82306c-0.09137,-6.50106 5.22987,-12.07091 11.72959,-12.26172c6.84506,-0.19887 12.45656,5.29034 12.45656,12.08972c0,3.57841 -1.56009,6.78459 -4.03125,8.99506v4.44244h13.4375c7.42153,0 13.4375,-6.01597 13.4375,-13.4375v-76.59375c0,-7.42153 -6.01597,-13.4375 -13.4375,-13.4375z" fill="none" stroke="#000000" stroke-width="8.0625" stroke-linejoin="round"></path><path d="M137.0625,96.75c-2.2264,0 -4.03125,1.80485 -4.03125,4.03125c0,2.2264 1.80485,4.03125 4.03125,4.03125c2.2264,0 4.03125,-1.80485 4.03125,-4.03125c0,-2.2264 -1.80485,-4.03125 -4.03125,-4.03125z" fill="#cd928d" stroke="none" stroke-width="1" stroke-linejoin="miter"></path></g></g></svg>