<svg version="1.1" xmlns="http://www.w3.org/2000/svg" xmlns:xlink="http://www.w3.org/1999/xlink" viewBox="0 0 172 172"><g fill="none" fill-rule="nonzero" stroke="none" stroke-width="1" stroke-linecap="butt" stroke-linejoin="miter" stroke-miterlimit="10" stroke-dasharray="" stroke-dashoffset="0" font-family="none" font-weight="none" font-size="none" text-anchor="none" style="mix-blend-mode: normal"><path d="M0,172v-172h172v172z" fill="none"></path><g><path d="M120.80313,80.625c3.35938,-2.41875 5.50937,-6.31562 5.50937,-10.75c0,-7.39062 -6.04687,-13.4375 -13.4375,-13.4375c-0.80625,0 -1.47812,0.13437 -2.15,0.13437v0l-7.39062,0.94063c0.13437,-0.80625 0.13437,-1.6125 0.13437,-2.55312c0,-11.15312 -9.00312,-20.15625 -20.15625,-20.15625c-5.375,0 -10.2125,2.01563 -13.70625,5.50937c3.35938,2.15 5.64375,5.9125 5.64375,10.2125c0,6.18125 -4.70312,11.2875 -10.61562,11.95937v0l-5.375,0.67188v0c-7.65937,1.47812 -13.57187,8.0625 -13.57187,16.125c0,4.97187 2.15,9.27188 5.64375,12.22812l-8.73437,1.47812v0c-7.79375,1.47812 -13.70625,8.33125 -13.70625,16.52813c0,9.27188 7.525,16.79688 16.79687,16.79688l73.90625,1.34375c13.03438,0 23.51563,-10.48125 23.51563,-23.51562c0,-12.63125 -9.80937,-22.84375 -22.30625,-23.51562z" fill="#ffffff"></path><path d="M45.6875,130.34375c-11.42187,0 -20.82812,-9.40625 -20.82812,-20.82812c0,-2.28437 1.74687,-4.03125 4.03125,-4.03125c2.28438,0 4.03125,1.74688 4.03125,4.03125c0,6.9875 5.77813,12.76563 12.76563,12.76563c2.28438,0 4.03125,1.74688 4.03125,4.03125c0,2.28438 -1.74687,4.03125 -4.03125,4.03125z" fill="#000000"></path><path d="M142.975,101.99063c0,-0.13437 0,-0.40313 0,-0.5375c0,-0.40313 -0.13437,-0.80625 -0.13437,-1.20938c0,-0.40312 -0.13438,-0.67187 -0.26875,-1.075c-0.13437,-0.40313 -0.26875,-0.94063 -0.26875,-1.34375c0,-0.26875 -0.13437,-0.40313 -0.13437,-0.67187c-0.13438,-0.5375 -0.40312,-1.20938 -0.67187,-1.74688c-0.13438,-0.26875 -0.13438,-0.40313 -0.26875,-0.67187c-0.13437,-0.40313 -0.40312,-0.80625 -0.5375,-1.20938c-0.13438,-0.26875 -0.26875,-0.5375 -0.40313,-0.80625c-0.13437,-0.26875 -0.26875,-0.5375 -0.5375,-0.80625c-0.13438,-0.26875 -0.40312,-0.5375 -0.5375,-0.94063c-0.13438,-0.26875 -0.26875,-0.40312 -0.5375,-0.67187c-0.26875,-0.26875 -0.40312,-0.67187 -0.67187,-0.94062l-0.13437,-0.13437c-0.67187,-0.80625 -1.34375,-1.47812 -2.15,-2.28438c-0.13438,-0.13437 -0.13438,-0.13437 -0.26875,-0.26875c-0.40312,-0.26875 -0.67187,-0.67187 -1.075,-0.94062c-0.13438,-0.13438 -0.26875,-0.13438 -0.26875,-0.26875c-0.40312,-0.26875 -0.80625,-0.67187 -1.20937,-0.94062c0,0 -0.13438,0 -0.13438,-0.13438c-2.28437,-1.6125 -4.97187,-2.6875 -7.79375,-3.35937c0,-0.40313 0.13437,-0.80625 0,-1.20937c-0.13437,-0.94063 -0.5375,-1.6125 -1.20938,-2.28438c1.6125,-2.28437 2.6875,-4.97187 2.6875,-7.92812c0,-7.39062 -6.04687,-13.4375 -13.4375,-13.4375c-0.80625,0 -1.47812,0.13437 -2.15,0.13437v0l-2.6875,0.40312v-0.13437c-0.26875,-2.15 -2.28437,-3.7625 -4.56875,-3.49375l-11.01875,1.6125c-2.15,0.26875 -3.7625,2.28438 -3.49375,4.56875c0.26875,2.01563 2.01563,3.49375 4.03125,3.49375c0.13437,0 0.40312,0 0.5375,0l11.01875,-1.6125c0.13437,0 0.40312,0 0.5375,-0.13437c2.41875,-0.67187 5.10625,0.13437 6.18125,2.28438c0.94062,1.88125 1.6125,4.03125 1.6125,6.31563v0.13438c0,4.43437 -3.35937,8.33125 -7.79375,9.00312l-19.21563,2.82188c-2.01562,0.26875 -3.7625,2.01563 -3.62812,4.16563c0.13438,2.28437 1.88125,3.89687 4.03125,3.89687c0.13437,0 0.40312,0 0.5375,0l27.14375,-4.03125c4.3,-0.67187 8.73438,1.075 11.2875,4.70313c0,0 0,0.13438 0.13437,0.13438c2.95625,4.16562 2.95625,9.54062 0,13.70625c-4.43438,6.18125 -11.42188,10.07813 -19.35,10.07813l-13.84063,-0.26875c-3.49375,-0.13438 -6.31562,2.6875 -6.31562,6.18125v0c0,3.35938 2.6875,6.18125 6.18125,6.18125c5.375,0.13437 13.4375,0.26875 20.55938,0.26875c-1.20938,0.40313 -2.41875,0.67188 -3.62813,0.80625l10.48125,0.26875c2.6875,0 5.24063,-0.40313 7.65937,-1.34375c0.13438,0 0.13438,0 0.26875,0c0.26875,-0.13437 0.5375,-0.26875 0.94062,-0.40313c0.13438,-0.13437 0.40312,-0.13437 0.5375,-0.26875c0.67188,-0.26875 1.20937,-0.5375 1.88125,-0.94062c0.13438,0 0.13438,-0.13438 0.26875,-0.13438c0.5375,-0.26875 1.075,-0.67187 1.6125,-0.94062c0.13437,-0.13437 0.40312,-0.26875 0.5375,-0.40313c0.40312,-0.26875 0.80625,-0.5375 1.20938,-0.80625c0.13437,-0.13437 0.40312,-0.26875 0.5375,-0.40312c0.40312,-0.26875 0.80625,-0.67187 1.20937,-1.075c0.13438,-0.13437 0.26875,-0.26875 0.40313,-0.40312c0.5375,-0.5375 0.94062,-0.94063 1.34375,-1.47812c0.13437,-0.13437 0.13437,-0.26875 0.26875,-0.40313c0.26875,-0.40312 0.67188,-0.80625 0.94063,-1.34375c0.13438,-0.13437 0.26875,-0.40312 0.40312,-0.5375c0.26875,-0.40312 0.5375,-0.80625 0.80625,-1.20938c0.13438,-0.13437 0.26875,-0.40312 0.26875,-0.5375c0.26875,-0.5375 0.5375,-1.075 0.80625,-1.6125c0,-0.13437 0.13438,-0.26875 0.13438,-0.26875c0.26875,-0.67187 0.5375,-1.34375 0.67188,-2.01562c0,-0.13437 0.13437,-0.40312 0.13437,-0.5375c0.13438,-0.5375 0.26875,-0.94063 0.40313,-1.47813c0,-0.26875 0.13437,-0.5375 0.13437,-0.67187c0.13438,-0.5375 0.13438,-0.94062 0.26875,-1.47812c0,-0.26875 0,-0.40312 0.13437,-0.67187c0,-0.67187 0.13438,-1.47812 0.13438,-2.15c-0.40313,-0.67188 -0.40313,-1.47813 -0.5375,-2.15z" fill="#cadbea"></path><path d="M126.3125,126.3125h-80.625l5.375,40.3125h69.875z" fill="#ba7879"></path><path d="M126.3125,126.3125h-17.46875l-4.03125,40.3125h16.125zM86,170.65625c-2.28437,0 -4.03125,-1.74687 -4.03125,-4.03125v-20.15625c0,-2.28438 1.74688,-4.03125 4.03125,-4.03125c2.28437,0 4.03125,1.74687 4.03125,4.03125v20.15625c0,2.28438 -1.74688,4.03125 -4.03125,4.03125z" fill="#825559"></path><path d="M104.8125,170.65625c-0.13437,0 -0.13437,0 -0.26875,0c-2.28438,-0.13438 -3.89688,-2.01562 -3.7625,-4.3l1.34375,-20.15625c0.13437,-2.28437 2.15,-3.89687 4.3,-3.7625c2.28438,0.13438 3.89688,2.01563 3.7625,4.3l-1.34375,20.15625c-0.13437,2.15 -1.88125,3.7625 -4.03125,3.7625zM67.1875,170.65625c-2.15,0 -3.89688,-1.6125 -4.03125,-3.7625l-1.34375,-20.15625c-0.13437,-2.28438 1.47812,-4.16563 3.7625,-4.3c2.15,-0.13438 4.16562,1.47813 4.3,3.7625l1.34375,20.15625c0.13438,2.28438 -1.47813,4.16563 -3.7625,4.3c-0.13437,0 -0.13437,0 -0.26875,0z" fill="#825559"></path><path d="M120.9375,170.65625h-69.875c-2.01562,0 -3.7625,-1.47813 -4.03125,-3.49375l-5.375,-40.3125c-0.26875,-2.15 1.20938,-4.3 3.49375,-4.56875c2.15,-0.26875 4.3,1.20938 4.56875,3.49375l4.97188,36.81875h62.75313l4.3,-32.25h-48.50938c-2.28437,0 -4.03125,-1.74687 -4.03125,-4.03125c0,-2.28437 1.74688,-4.03125 4.03125,-4.03125h53.07813c1.20938,0 2.28438,0.5375 3.09062,1.34375c0.80625,0.94062 1.075,2.01563 0.94063,3.225l-5.375,40.3125c-0.26875,2.01563 -2.01562,3.49375 -4.03125,3.49375z" fill="#000000"></path><path d="M126.44688,130.74687c-1.74687,0 -3.35937,-1.075 -3.89688,-2.82187c-0.67187,-2.15 0.5375,-4.43437 2.6875,-4.97187c8.19688,-2.41875 13.84062,-10.07812 13.84062,-18.67813c0,-10.34687 -8.0625,-18.94688 -18.40937,-19.48437c-1.6125,-0.13438 -3.09062,-1.075 -3.62812,-2.6875c-0.5375,-1.6125 -0.13437,-3.225 1.075,-4.3l2.15,-1.88125c1.34375,-1.6125 2.15,-3.7625 2.15,-5.9125c0,-5.24062 -4.16562,-9.40625 -9.40625,-9.40625c-0.40312,0 -0.94062,0 -1.47812,0.13438c-0.13437,0 -0.26875,0 -0.5375,0l-6.9875,0.94063c-1.20938,0.13437 -2.41875,-0.26875 -3.225,-1.075c-0.94063,-0.80625 -1.34375,-2.01562 -1.20938,-3.225l0.13437,-2.28438c-0.40312,-9.00313 -7.525,-16.125 -16.39375,-16.125c-2.55312,0 -5.10625,0.67188 -7.39062,1.74688c2.15,2.82187 3.35938,6.18125 3.35938,9.80937c0,8.19688 -6.04687,15.05 -14.10937,15.99063c-2.15,0.26875 -4.16562,-1.34375 -4.43437,-3.49375c-0.26875,-2.15 1.34375,-4.16563 3.49375,-4.43438c4.03125,-0.5375 7.12188,-3.89687 7.12188,-7.92812c0,-2.82188 -1.47813,-5.375 -3.7625,-6.85313c-1.075,-0.67187 -1.74687,-1.74687 -1.88125,-3.09062c-0.13438,-1.20938 0.40312,-2.41875 1.20937,-3.35937c4.43438,-4.16563 10.2125,-6.45 16.39375,-6.45c12.63125,0 22.97812,9.675 24.05313,22.0375l2.6875,-0.40313c0.13437,0 0.13437,0 0.26875,0c0.94062,-0.13437 1.74688,-0.13437 2.55312,-0.13437c9.675,0 17.46875,7.79375 17.46875,17.46875c0,2.82188 -0.67187,5.64375 -2.01562,8.19688c11.01875,3.62812 18.8125,13.975 18.8125,26.06875c0,12.22812 -7.79375,22.84375 -19.61875,26.3375c-0.26875,0.13438 -0.67187,0.26875 -1.075,0.26875z" fill="#000000"></path><path d="M50.39063,94.73438c-1.075,0 -2.01562,-0.40313 -2.82187,-1.20938c-3.7625,-3.7625 -5.9125,-8.86875 -5.9125,-14.24375c0,-9.80938 6.9875,-18.14062 16.6625,-19.8875c0.13437,0 0.40312,-0.13438 0.5375,-0.13438l5.375,-0.67187c2.15,-0.26875 4.16562,1.20938 4.56875,3.49375c0.26875,2.15 -1.20937,4.16562 -3.49375,4.56875l-4.97188,0.67188c-0.13437,0 -0.13437,0 -0.26875,0c-6.04687,0.94062 -10.34687,5.9125 -10.34687,11.95937c0,3.225 1.20938,6.31562 3.49375,8.6c1.6125,1.6125 1.6125,4.16562 0,5.64375c-0.80625,0.80625 -1.74688,1.20937 -2.82187,1.20937z" fill="#000000"></path><path d="M33.59375,125.2375c-1.075,0 -2.15,-0.40312 -2.95625,-1.20937c-3.7625,-3.89688 -5.9125,-9.00313 -5.9125,-14.5125c0,-9.94375 6.9875,-18.40937 16.79688,-20.425c0.13437,0 0.26875,0 0.40312,-0.13438l8.73438,-1.47812c2.15,-0.40312 4.3,1.075 4.56875,3.35938c0.40313,2.15 -1.075,4.3 -3.35937,4.56875l-8.46562,1.34375h-0.13437c-6.04687,1.075 -10.48125,6.45 -10.48125,12.49688c0,3.35938 1.34375,6.45 3.62812,8.86875c1.6125,1.6125 1.47813,4.16562 -0.13437,5.64375c-0.67187,1.075 -1.6125,1.47812 -2.6875,1.47812z" fill="#000000"></path><g fill="#000000"><path d="M139.75,170.65625h-18.8125c-2.28437,0 -4.03125,-1.74687 -4.03125,-4.03125c0,-2.28438 1.74688,-4.03125 4.03125,-4.03125h18.8125c2.28438,0 4.03125,1.74687 4.03125,4.03125c0,2.28438 -1.74687,4.03125 -4.03125,4.03125z"></path></g><g fill="#000000"><path d="M159.90625,170.65625c-0.26875,0 -0.5375,0 -0.80625,-0.13438c-0.26875,0 -0.5375,-0.13437 -0.80625,-0.26875c-0.26875,-0.13438 -0.40312,-0.26875 -0.67187,-0.40313c-0.26875,-0.13437 -0.40312,-0.26875 -0.5375,-0.5375c-0.13437,-0.13438 -0.40312,-0.40312 -0.5375,-0.5375c-0.13438,-0.26875 -0.26875,-0.40313 -0.40312,-0.67187c-0.13438,-0.26875 -0.13438,-0.5375 -0.26875,-0.80625c0,-0.26875 -0.13438,-0.5375 -0.13438,-0.80625c0,-0.26875 0,-0.5375 0.13438,-0.80625c0,-0.26875 0.13438,-0.5375 0.26875,-0.80625c0.13437,-0.26875 0.26875,-0.40312 0.40312,-0.67187c0.13438,-0.26875 0.26875,-0.40312 0.5375,-0.67187c0.26875,-0.26875 0.40313,-0.40312 0.5375,-0.5375c0.26875,-0.13438 0.40312,-0.26875 0.67188,-0.40312c0.26875,-0.13438 0.5375,-0.13438 0.80625,-0.26875c1.34375,-0.26875 2.6875,0.13437 3.62813,1.075c0.80625,0.80625 1.20938,1.74687 1.20938,2.82188c0,1.075 -0.40313,2.15 -1.20938,2.82187c-0.67187,1.20938 -1.74688,1.6125 -2.82188,1.6125z"></path></g></g></g></svg>