<svg version="1.1" xmlns="http://www.w3.org/2000/svg" xmlns:xlink="http://www.w3.org/1999/xlink" viewBox="0 0 172 172"><g fill="none" fill-rule="nonzero" stroke="none" stroke-width="1" stroke-linecap="butt" stroke-linejoin="miter" stroke-miterlimit="10" stroke-dasharray="" stroke-dashoffset="0" font-family="none" font-weight="none" font-size="none" text-anchor="none" style="mix-blend-mode: normal"><path d="M0,172v-172h172v172z" fill="none"></path><g id="Layer_1"><path d="M5.375,166.625v-161.25l26.875,20.15625l26.875,-20.15625l26.875,20.15625l26.875,-20.15625l26.875,20.15625l26.875,-20.15625v161.25z" fill="#ffffff"></path><path d="M166.625,45.6875h-22.84375c-7.39062,0 -13.4375,6.04688 -13.4375,13.4375v68.53125c0,7.39063 -6.04687,13.4375 -13.4375,13.4375h-71.21875c-7.39062,0 -13.4375,6.04688 -13.4375,13.4375v12.09375h134.375z" fill="#e4b2ac"></path><path d="M65.84375,95.40625c-7.39062,0 -13.4375,-6.04687 -13.4375,-13.4375c0,-7.39062 6.04688,-13.4375 13.4375,-13.4375c7.39063,0 13.4375,6.04688 13.4375,13.4375c0,7.39063 -6.04687,13.4375 -13.4375,13.4375zM65.84375,76.59375c-2.95625,0 -5.375,2.41875 -5.375,5.375c0,2.95625 2.41875,5.375 5.375,5.375c2.95625,0 5.375,-2.41875 5.375,-5.375c0,-2.95625 -2.41875,-5.375 -5.375,-5.375z" fill="#444b54"></path><path d="M106.15625,130.34375c-7.39062,0 -13.4375,-6.04687 -13.4375,-13.4375c0,-7.39062 6.04688,-13.4375 13.4375,-13.4375c7.39063,0 13.4375,6.04688 13.4375,13.4375c0,7.39063 -6.04687,13.4375 -13.4375,13.4375zM106.15625,111.53125c-2.95625,0 -5.375,2.41875 -5.375,5.375c0,2.95625 2.41875,5.375 5.375,5.375c2.95625,0 5.375,-2.41875 5.375,-5.375c0,-2.95625 -2.41875,-5.375 -5.375,-5.375z" fill="#444b54"></path><path d="M62.48438,129.26875c-0.94063,0 -1.88125,-0.40313 -2.6875,-1.075c-1.6125,-1.47812 -1.74687,-4.03125 -0.26875,-5.64375l47.03125,-51.46562c1.47812,-1.6125 4.03125,-1.74688 5.64375,-0.26875c1.6125,1.47813 1.74688,4.03125 0.26875,5.64375l-47.03125,51.46562c-0.80625,0.80625 -1.88125,1.34375 -2.95625,1.34375z" fill="#444b54"></path><path d="M166.625,170.65625c-2.28438,0 -4.03125,-1.74687 -4.03125,-4.03125v-153.1875l-20.425,15.31875c-1.47812,1.075 -3.35937,1.075 -4.8375,0l-24.45625,-18.275l-24.45625,18.275c-1.47813,1.075 -3.35937,1.075 -4.8375,0l-24.45625,-18.275l-24.45625,18.275c-1.47813,1.075 -3.35938,1.075 -4.8375,0l-20.425,-15.31875v112.875c0,2.28438 -1.74688,4.03125 -4.03125,4.03125c-2.28438,0 -4.03125,-1.74687 -4.03125,-4.03125v-120.9375c0,-1.47812 0.80625,-2.95625 2.28438,-3.62812c1.34375,-0.67187 2.95625,-0.5375 4.16563,0.40313l24.45625,18.275l24.45625,-18.275c1.47812,-1.075 3.35938,-1.075 4.8375,0l24.45625,18.275l24.45625,-18.275c1.47813,-1.075 3.35938,-1.075 4.8375,0l24.45625,18.275l24.45625,-18.275c1.20937,-0.94062 2.82187,-1.075 4.16562,-0.40312c1.34375,0.67187 2.28438,2.01563 2.28438,3.62813v161.25c0,2.28438 -1.74687,4.03125 -4.03125,4.03125z" fill="#444b54"></path><path d="M5.375,170.65625c-2.28438,0 -4.03125,-1.74687 -4.03125,-4.03125v-13.4375c0,-2.28438 1.74687,-4.03125 4.03125,-4.03125c2.28437,0 4.03125,1.74687 4.03125,4.03125v13.4375c0,2.28438 -1.74688,4.03125 -4.03125,4.03125z" fill="#444b54"></path></g></g></svg>