<?xml version="1.0" encoding="UTF-8" standalone="no"?>
<svg
   version="1.1"
   viewBox="0 0 172 172"
   id="svg34"
   sodipodi:docname="Entrega.svg"
   inkscape:export-filename="D:\Documentos\Github\VentasPasteleria-TeamD\GUI\src\main\recursos\SVG\Entrega.png"
   inkscape:export-xdpi="111.62791"
   inkscape:export-ydpi="111.62791"
   inkscape:version="1.1.1 (3bf5ae0d25, 2021-09-20)"
   xmlns:inkscape="http://www.inkscape.org/namespaces/inkscape"
   xmlns:sodipodi="http://sodipodi.sourceforge.net/DTD/sodipodi-0.dtd"
   xmlns="http://www.w3.org/2000/svg"
   xmlns:svg="http://www.w3.org/2000/svg">
  <defs
     id="defs38" />
  <sodipodi:namedview
     id="namedview36"
     pagecolor="#ffffff"
     bordercolor="#666666"
     borderopacity="1.0"
     inkscape:pageshadow="2"
     inkscape:pageopacity="0.0"
     inkscape:pagecheckerboard="0"
     showgrid="false"
     inkscape:zoom="3.755814"
     inkscape:cx="86"
     inkscape:cy="86"
     inkscape:window-width="1920"
     inkscape:window-height="1051"
     inkscape:window-x="-9"
     inkscape:window-y="-9"
     inkscape:window-maximized="1"
     inkscape:current-layer="svg34" />
  <g
     fill="none"
     fill-rule="nonzero"
     stroke="none"
     stroke-width="1"
     stroke-linecap="butt"
     stroke-linejoin="miter"
     stroke-miterlimit="10"
     stroke-dasharray=""
     stroke-dashoffset="0"
     font-family="none"
     font-weight="none"
     font-size="none"
     text-anchor="none"
     style="mix-blend-mode: normal"
     id="g32">
    <path
       d="M0,172v-172h172v172z"
       fill="none"
       id="path2" />
    <g
       id="g30">
      <path
         d="M139.75,66.91875v0c-7.39062,-7.39063 -19.48437,-7.39063 -26.875,0v0l-26.875,-13.4375l-26.875,13.4375v0c-7.39062,-7.39063 -19.48437,-7.39063 -26.875,0v0c0,-29.69688 24.05313,-53.75 53.75,-53.75c29.69687,0 53.75,24.05313 53.75,53.75z"
         fill="#e74c3c"
         id="path4" />
      <path
         d="M112.875,66.91875v0c-16.93125,-8.46563 -36.81875,-8.46563 -53.75,0v0c0,-29.69688 12.09375,-53.75 26.875,-53.75c14.78125,0 26.875,24.05313 26.875,53.75z"
         fill="#ecf0f1"
         id="path6" />
      <path
         d="M112.875,70.95c-0.67187,0 -1.20938,-0.13438 -1.74688,-0.40313c-7.79375,-3.89687 -16.52812,-6.04687 -25.12812,-6.04687c-8.6,0 -17.33437,2.01563 -25.12813,5.9125c-1.20937,0.67188 -2.6875,0.5375 -3.89687,-0.13437c-1.20938,-0.67187 -1.88125,-2.01562 -1.88125,-3.49375c0,-32.38437 13.57188,-57.78125 30.90625,-57.78125c17.2,0 30.77188,25.12812 30.90625,57.24375c0,0.13438 0,0.26875 0,0.5375c0,2.28437 -1.74688,4.16563 -4.03125,4.16563zM86,17.2c-10.2125,0 -21.09687,17.2 -22.70937,43.5375c14.5125,-5.50938 30.90625,-5.375 45.28438,0c-1.47813,-26.3375 -12.3625,-43.5375 -22.575,-43.5375z"
         fill="#000000"
         id="path8" />
      <path
         d="M139.75,70.95c-1.075,0 -2.01562,-0.40313 -2.82188,-1.20938c-2.82187,-2.82187 -6.58437,-4.43437 -10.61562,-4.43437c-4.03125,0 -7.79375,1.6125 -10.61563,4.43437c-1.20938,1.20938 -3.09062,1.47813 -4.70312,0.80625c-7.65937,-3.89687 -16.39375,-6.04687 -24.99375,-6.04687c-8.6,0 -17.33437,2.01563 -25.12813,5.9125c-1.6125,0.80625 -3.49375,0.40313 -4.70312,-0.80625c-2.82187,-2.82188 -6.58437,-4.43438 -10.61562,-4.43438c-4.03125,0 -7.79375,1.6125 -10.61563,4.43438c-1.20938,1.20937 -2.82187,1.47812 -4.43437,0.94062c-1.34375,-0.5375 -2.28438,-2.01562 -2.28438,-3.62812c0,-31.84688 25.93437,-57.78125 57.78125,-57.78125c31.7125,0 57.5125,25.66563 57.78125,57.24375c0,0.13438 0,0.26875 0,0.5375c0,2.15 -1.74687,3.89687 -4.03125,4.03125zM45.6875,57.24375c5.24063,0 10.07813,1.74688 14.10938,4.8375c8.19688,-3.62813 17.2,-5.64375 26.20313,-5.64375c9.00312,0 18.00625,1.88125 26.20313,5.64375c4.03125,-3.09062 8.86875,-4.8375 14.10938,-4.8375c3.09062,0 6.04688,0.5375 8.73438,1.74688c-3.7625,-23.65 -24.32187,-41.79063 -49.04687,-41.79063c-24.725,0 -45.28437,18.14063 -49.04687,41.79063c2.6875,-1.20938 5.64375,-1.74688 8.73438,-1.74688z"
         fill="#000000"
         id="path10" />
      <path
         d="M62.75313,97.15313h46.49375v52.80938h-46.49375z"
         fill="#e2b09a"
         id="path12" />
      <path
         d="M62.75313,149.9625v-52.80937h46.49375v52.80938h-46.49375"
         fill="#e2b09a"
         id="path14" />
      <path
         d="M62.75313,97.15313v17.87187h46.49375v-17.87187h-46.49375M109.24688,133.56875h-46.49375v16.39375h46.49375v-16.39375"
         fill="#cb9e8a"
         id="path16" />
      <path
         d="M66.24688,139.2125c-1.075,0 -2.01562,-0.40313 -2.82188,-1.20938c-1.6125,-1.6125 -1.6125,-4.16562 0,-5.64375l36.0125,-36.41562c1.6125,-1.6125 4.16562,-1.6125 5.64375,0c1.6125,1.6125 1.6125,4.16562 0,5.64375l-36.0125,36.41563c-0.80625,0.80625 -1.88125,1.20937 -2.82188,1.20937zM71.21875,151.44063c-1.075,0 -2.01562,-0.40313 -2.82188,-1.20938c-1.6125,-1.6125 -1.6125,-4.16562 0,-5.64375l38.02813,-38.56563c1.6125,-1.6125 4.16563,-1.6125 5.64375,0c1.6125,1.6125 1.6125,4.16562 0,5.64375l-38.02813,38.56562c-0.67187,0.80625 -1.74688,1.20938 -2.82188,1.20938z"
         fill="#000000"
         id="path18" />
      <path
         d="M109.24688,154.12813v0h-46.49375c-2.28438,0 -4.03125,-1.74688 -4.03125,-4.03125v-52.80937c0,-1.075 0.40312,-2.15 1.20937,-2.82187c0.80625,-0.80625 1.74688,-1.20938 2.82188,-1.20938v0h46.49375c2.28437,0 4.03125,1.74687 4.03125,4.03125v52.80938c0,1.075 -0.40313,2.15 -1.20938,2.82187c-0.80625,0.67188 -1.74688,1.20938 -2.82188,1.20938zM66.78438,146.06563h38.43125v-44.74687h-38.43125z"
         fill="#000000"
         id="path20" />
      <path
         d="M113.27813,105.61875h-54.55625c-1.075,0 -2.01562,-0.94062 -2.01562,-2.01562v-7.39062c0,-1.075 0.94063,-2.01562 2.01563,-2.01562h54.42187c1.075,0 2.01563,0.94063 2.01563,2.01563v7.39063c0.13438,1.075 -0.80625,2.01563 -1.88125,2.01563z"
         fill="#e2b09a"
         id="path22" />
      <path
         d="M113.27813,109.65h-54.55625c-3.35937,0 -6.04687,-2.6875 -6.04687,-6.04687v-7.39062c0,-3.35937 2.6875,-6.04687 6.04688,-6.04687h54.42187c3.35938,0 6.04688,2.6875 6.04688,6.04688v7.39063c0.13438,3.35938 -2.55312,6.04688 -5.9125,6.04688zM60.7375,101.5875h50.525v-3.49375h-50.525z"
         fill="#000000"
         id="path24" />
      <path
         d="M113.27813,153.1875h-54.55625c-1.075,0 -2.01562,-0.94063 -2.01562,-2.01562v-7.39062c0,-1.075 0.94063,-2.01562 2.01563,-2.01562h54.42187c1.075,0 2.01563,0.94063 2.01563,2.01563v7.39063c0.13438,1.075 -0.80625,2.01563 -1.88125,2.01563z"
         fill="#e2b09a"
         id="path26" />
      <path
         d="M113.27813,157.21875h-54.55625c-3.35937,0 -6.04687,-2.6875 -6.04687,-6.04687v-7.39062c0,-3.35937 2.6875,-6.04687 6.04688,-6.04687h54.42187c3.35938,0 6.04688,2.6875 6.04688,6.04688v7.39063c0.13438,3.35938 -2.55312,6.04688 -5.9125,6.04688zM60.7375,149.15625h50.525v-3.49375h-50.525zM126.44688,84.52188c-1.075,0 -2.01562,-0.40312 -2.82187,-1.20937c-1.6125,-1.6125 -1.6125,-4.16563 -0.13437,-5.64375l13.30313,-13.57188c1.6125,-1.6125 4.16562,-1.6125 5.64375,-0.13438c1.6125,1.6125 1.6125,4.16563 0.13437,5.64375l-13.16875,13.70625c-0.80625,0.80625 -1.88125,1.20937 -2.95625,1.20937zM45.55313,84.52188c-1.075,0 -2.15,-0.40312 -2.82188,-1.20937l-13.30312,-13.57188c-1.6125,-1.6125 -1.47813,-4.16562 0.13438,-5.64375c1.6125,-1.6125 4.16562,-1.47813 5.64375,0.13438l13.16875,13.4375c1.6125,1.6125 1.47812,4.16562 -0.13437,5.64375c-0.67187,0.80625 -1.74688,1.20937 -2.6875,1.20937zM65.84375,84.52188c-1.47813,0 -2.95625,-0.80625 -3.62813,-2.28437l-6.71875,-13.57188c-0.94063,-2.01562 -0.13437,-4.43437 1.88125,-5.375c2.01563,-0.94063 4.43437,-0.13437 5.375,1.88125l6.71875,13.57188c0.94062,2.01563 0.13438,4.43438 -1.88125,5.375c-0.5375,0.26875 -1.20938,0.40313 -1.74688,0.40313zM106.15625,84.52188c-0.5375,0 -1.20938,-0.13437 -1.74688,-0.40312c-2.01562,-0.94063 -2.82187,-3.35937 -1.88125,-5.375l6.71875,-13.57188c0.94062,-2.01562 3.35938,-2.82187 5.375,-1.88125c2.01563,0.94063 2.82187,3.35938 1.88125,5.375l-6.71875,13.57187c-0.67187,1.47813 -2.15,2.28437 -3.62812,2.28437z"
         fill="#000000"
         id="path28" />
    </g>
  </g>
</svg>
