<svg version="1.1" xmlns="http://www.w3.org/2000/svg" xmlns:xlink="http://www.w3.org/1999/xlink" viewBox="0 0 172 172"><g fill="none" fill-rule="nonzero" stroke="none" stroke-width="1" stroke-linecap="butt" stroke-linejoin="miter" stroke-miterlimit="10" stroke-dasharray="" stroke-dashoffset="0" font-family="none" font-weight="none" font-size="none" text-anchor="none" style="mix-blend-mode: normal"><path d="M0,172v-172h172v172z" fill="none"></path><g><path d="M86,12.09375c-40.85,0 -73.90625,33.05625 -73.90625,73.90625c0,40.85 33.05625,73.90625 73.90625,73.90625c19.8875,0 37.89375,-7.79375 51.19688,-20.55937c2.15,-2.01562 -9.40625,-17.60313 -7.525,-19.8875c2.41875,-2.95625 18.14063,7.25625 20.15625,3.89688c6.45,-11.01875 10.07813,-23.78438 10.07813,-37.35625c0,-40.85 -33.05625,-73.90625 -73.90625,-73.90625zM86,126.3125c-22.30625,0 -40.3125,-18.00625 -40.3125,-40.3125c0,-22.30625 18.00625,-40.3125 40.3125,-40.3125c22.30625,0 40.3125,18.00625 40.3125,40.3125c0,22.30625 -18.00625,40.3125 -40.3125,40.3125z" fill="#89cccc"></path><path d="M159.90625,86c0,-40.85 -33.05625,-73.90625 -73.90625,-73.90625v33.59375c22.30625,0 40.3125,18.00625 40.3125,40.3125c0,7.39063 -2.01562,14.24375 -5.50937,20.29062l0.5375,0.5375l-0.67187,-0.40313c-6.85313,11.825 -19.8875,19.8875 -34.66875,19.8875c-15.05,0 -28.08437,-8.19687 -35.07187,-20.29062l-29.15937,16.52812c12.76562,22.30625 36.68438,37.35625 64.23125,37.35625c27.14375,0 50.92812,-14.64687 63.69375,-36.55l-1.075,-0.67187l1.20938,0.40312c6.45,-10.88437 10.07812,-23.51562 10.07812,-37.0875z" fill="#cccccc"></path><path d="M133.70313,137.0625c-13.03437,12.09375 -29.96563,18.8125 -47.70312,18.8125c-23.65,0 -45.6875,-12.09375 -58.5875,-31.84687l22.17188,-12.63125c8.33125,11.825 21.90312,18.94688 36.41563,18.94688c2.28437,0 4.03125,-1.74687 4.03125,-4.03125c0,-2.28437 -1.74688,-4.03125 -4.03125,-4.03125c-13.03437,0 -24.99375,-6.9875 -31.57812,-18.275c-1.075,-1.88125 -3.62813,-2.55313 -5.50937,-1.47812l-29.15937,16.52812c-0.94063,0.5375 -1.6125,1.34375 -1.88125,2.41875c-0.26875,1.075 -0.13437,2.15 0.40312,3.09062c13.84063,24.32188 39.775,39.37188 67.725,39.37188c19.8875,0 38.7,-7.39062 53.2125,-20.9625c1.6125,-1.47812 1.74687,-4.03125 0.13437,-5.64375c-1.47812,-1.74688 -4.03125,-1.74688 -5.64375,-0.26875z" fill="#444b54"></path><path d="M149.82813,127.11875c-0.67187,0 -1.34375,-0.13437 -2.01562,-0.5375l-29.025,-16.79687c-0.94063,-0.5375 -1.6125,-1.47812 -1.88125,-2.41875c-0.26875,-1.075 -0.13437,-2.15 0.40313,-3.09063c3.225,-5.50938 4.97187,-11.825 4.97187,-18.275c0,-20.02187 -16.25937,-36.28125 -36.28125,-36.28125c-2.28437,0 -4.03125,-1.74687 -4.03125,-4.03125v-33.59375c0,-2.28438 1.74688,-4.03125 4.03125,-4.03125c43,0 77.9375,34.9375 77.9375,77.9375c0,13.70625 -3.62813,27.27813 -10.61562,39.10312c-0.67187,1.34375 -2.01562,2.01563 -3.49375,2.01563zM126.17813,104.67813l22.17187,12.9c4.97188,-9.80938 7.525,-20.55938 7.525,-31.57812c0,-37.22188 -29.15937,-67.725 -65.84375,-69.74062v25.53125c22.575,2.15 40.3125,21.09687 40.3125,44.20938c0,6.45 -1.47813,12.9 -4.16562,18.67813z" fill="#444b54"></path><circle cx="81" cy="89" transform="scale(1.34375,1.34375)" r="3" fill="#444b54"></circle></g></g></svg>