<svg version="1.1" xmlns="http://www.w3.org/2000/svg" xmlns:xlink="http://www.w3.org/1999/xlink" viewBox="0 0 172 172"><g fill="none" fill-rule="nonzero" stroke="none" stroke-width="1" stroke-linecap="butt" stroke-linejoin="miter" stroke-miterlimit="10" stroke-dasharray="" stroke-dashoffset="0" font-family="none" font-weight="none" font-size="none" text-anchor="none" style="mix-blend-mode: normal"><path d="M0,172v-172h172v172z" fill="none"></path><g><path d="M29.5625,64.5h48.375v-25.53125h-48.375l-13.4375,13.16875z" fill="#ffffff"></path><path d="M56.4375,64.5h21.5v-25.53125h-48.375l13.4375,13.16875z" fill="#e0e0e0"></path><path d="M77.9375,68.53125h-48.375c-1.075,0 -2.01562,-0.40313 -2.6875,-1.075l-13.4375,-12.3625c-0.80625,-0.80625 -1.34375,-1.74687 -1.34375,-2.95625c0,-1.075 0.40313,-2.15 1.20937,-2.95625l13.4375,-13.16875c0.80625,-0.80625 1.74688,-1.20937 2.82188,-1.20937h48.375c2.28437,0 4.03125,1.74688 4.03125,4.03125c0,2.28437 -1.74688,4.03125 -4.03125,4.03125h-46.7625l-9.27188,9.1375l9.1375,8.33125h46.89688c2.28437,0 4.03125,1.74687 4.03125,4.03125c0,2.28438 -1.74688,4.16563 -4.03125,4.16563z" fill="#000000"></path><path d="M142.4375,56.4375h-48.375v-25.53125h48.375l13.4375,13.16875z" fill="#e0e0e0"></path><path d="M120.9375,56.4375h-26.875v-25.53125v0z" fill="#b6b6b7"></path><path d="M142.4375,60.46875h-48.375c-2.28437,0 -4.03125,-1.74687 -4.03125,-4.03125c0,-2.28438 1.74688,-4.03125 4.03125,-4.03125h46.7625l9.1375,-8.33125l-9.27188,-9.1375h-46.62812c-2.28437,0 -4.03125,-1.74687 -4.03125,-4.03125c0,-2.28438 1.74688,-4.03125 4.03125,-4.03125h48.375c1.075,0 2.01563,0.40312 2.82188,1.20937l13.4375,13.16875c0.80625,0.80625 1.20937,1.88125 1.20937,2.95625c0,1.075 -0.5375,2.15 -1.34375,2.95625l-13.4375,12.3625c-0.67187,0.5375 -1.6125,0.94063 -2.6875,0.94063z" fill="#000000"></path><path d="M77.9375,145.125v-118.25c0,-4.43437 3.62812,-8.0625 8.0625,-8.0625v0c4.43438,0 8.0625,3.62813 8.0625,8.0625v118.25c0,4.43437 -3.62812,8.0625 -8.0625,8.0625v0c-4.43438,0 -8.0625,-3.62813 -8.0625,-8.0625z" fill="#aa8f9d"></path><path d="M86,157.21875c-6.71875,0 -12.09375,-5.375 -12.09375,-12.09375v-80.625c0,-2.28438 1.74688,-4.03125 4.03125,-4.03125c2.28437,0 4.03125,1.74687 4.03125,4.03125v80.625c0,2.28438 1.74688,4.03125 4.03125,4.03125c2.28437,0 4.03125,-1.74687 4.03125,-4.03125v-118.25c0,-2.28438 -1.74688,-4.03125 -4.03125,-4.03125c-2.28437,0 -4.03125,1.74687 -4.03125,4.03125v18.8125c0,2.28438 -1.74688,4.03125 -4.03125,4.03125c-2.28437,0 -4.03125,-1.74687 -4.03125,-4.03125v-18.8125c0,-6.71875 5.375,-12.09375 12.09375,-12.09375c6.71875,0 12.09375,5.375 12.09375,12.09375v118.25c0,6.71875 -5.375,12.09375 -12.09375,12.09375z" fill="#000000"></path></g></g></svg>