<?xml version="1.0" encoding="UTF-8" standalone="no"?>
<svg
   version="1.1"
   viewBox="0 0 172 172"
   id="svg26"
   sodipodi:docname="Inventario.svg"
   inkscape:export-filename="D:\Documentos\Github\VentasPasteleria-TeamD\GUI\src\main\recursos\SVG\Inventario.png"
   inkscape:export-xdpi="111.62791"
   inkscape:export-ydpi="111.62791"
   inkscape:version="1.1.1 (3bf5ae0d25, 2021-09-20)"
   xmlns:inkscape="http://www.inkscape.org/namespaces/inkscape"
   xmlns:sodipodi="http://sodipodi.sourceforge.net/DTD/sodipodi-0.dtd"
   xmlns="http://www.w3.org/2000/svg"
   xmlns:svg="http://www.w3.org/2000/svg">
  <defs
     id="defs30" />
  <sodipodi:namedview
     id="namedview28"
     pagecolor="#ffffff"
     bordercolor="#666666"
     borderopacity="1.0"
     inkscape:pageshadow="2"
     inkscape:pageopacity="0.0"
     inkscape:pagecheckerboard="0"
     showgrid="false"
     inkscape:zoom="3.755814"
     inkscape:cx="86"
     inkscape:cy="86"
     inkscape:window-width="1920"
     inkscape:window-height="1051"
     inkscape:window-x="-9"
     inkscape:window-y="-9"
     inkscape:window-maximized="1"
     inkscape:current-layer="svg26" />
  <g
     fill="none"
     fill-rule="nonzero"
     stroke="none"
     stroke-width="1"
     stroke-linecap="butt"
     stroke-linejoin="miter"
     stroke-miterlimit="10"
     stroke-dasharray=""
     stroke-dashoffset="0"
     font-family="none"
     font-weight="none"
     font-size="none"
     text-anchor="none"
     style="mix-blend-mode: normal"
     id="g24">
    <path
       d="M0,172v-172h172v172z"
       fill="none"
       id="path2" />
    <g
       id="g22">
      <path
         d="M76.8625,80.22188h-51.6c-1.74687,0 -3.225,-1.47812 -3.225,-3.225v-50.92813c0,-1.74687 1.47813,-3.225 3.225,-3.225h51.6c1.74688,0 3.225,1.47813 3.225,3.225v50.79375c0.13437,1.88125 -1.34375,3.35938 -3.225,3.35938"
         fill="#f1c40f"
         id="path4" />
      <path
         d="M37.94213,22.84375h-4.93425c-0.96078,0.72562 -1.56413,1.88259 -1.56413,3.225v24.05313c0,2.28438 1.74687,4.03125 4.03125,4.03125c2.15,0 4.03125,-1.88125 4.03125,-4.03125v-24.05312c0,-1.34241 -0.60334,-2.49938 -1.56412,-3.225"
         fill="#3498db"
         id="path6" />
      <path
         d="M76.8625,149.15625h-51.6c-1.74687,0 -3.225,-1.47813 -3.225,-3.225v-50.92813c0,-1.74687 1.47813,-3.225 3.225,-3.225h51.6c1.74688,0 3.225,1.47947 3.225,3.225v50.79375c0.13437,1.88125 -1.34375,3.35938 -3.225,3.35938"
         fill="#f1c40f"
         id="path8" />
      <path
         d="M37.94078,91.77813h-4.93291c-0.96078,0.72563 -1.56547,1.88259 -1.56547,3.225v24.05312c0,2.28438 1.74687,4.03125 4.03125,4.03125c2.15,0 4.03125,-1.87991 4.03125,-4.03125v-24.05312c0.00134,-1.34241 -0.602,-2.49937 -1.56413,-3.225"
         fill="#3498db"
         id="path10" />
      <path
         d="M146.7375,149.15625h-51.6c-1.74688,0 -3.22366,-1.47813 -3.22366,-3.225v-50.92813c0,-1.74687 1.47812,-3.225 3.22366,-3.225h51.6c1.74687,0 3.22366,1.47947 3.22366,3.225v50.79375c0.00134,1.88125 -1.47678,3.35938 -3.22366,3.35938"
         fill="#f1c40f"
         id="path12" />
      <path
         d="M107.68141,91.77813h-4.93291c-0.96078,0.72563 -1.56547,1.88259 -1.56547,3.225v24.05312c0,2.28438 1.74688,4.03125 4.03125,4.03125c2.28438,0 4.03125,-1.87991 4.03125,-4.03125v-24.05312c0.00134,-1.34241 -0.602,-2.49937 -1.56412,-3.225"
         fill="#3498db"
         id="path14" />
      <path
         d="M76.8625,84.25313h-51.6c-4.03125,0 -7.25625,-3.225 -7.25625,-7.25625v-50.92813c0,-4.03125 3.225,-7.25625 7.25625,-7.25625h51.6c4.03125,0 7.25625,3.225 7.25625,7.25625v50.92813c0.13437,4.03125 -3.225,7.25625 -7.25625,7.25625zM26.06875,76.19063h50.12188v-49.31562h-50.12187z"
         fill="#000000"
         id="path16" />
      <path
         d="M93.65938,22.0375c-2.28437,0 -4.03125,1.74688 -4.03125,4.03125v50.92813c0,2.28437 1.74688,4.03125 4.03125,4.03125c2.15,0 4.03125,-1.88125 4.03125,-4.03125v-50.92813c0,-2.28437 -1.74687,-4.03125 -4.03125,-4.03125M107.09688,22.0375c-2.28437,0 -4.03125,1.74688 -4.03125,4.03125v50.92813c0,2.28437 1.74688,4.03125 4.03125,4.03125c2.15,0 4.03125,-1.88125 4.03125,-4.03125v-50.92813c0,-2.28437 -1.74687,-4.03125 -4.03125,-4.03125M120.53438,22.0375c-2.28437,0 -4.03125,1.74688 -4.03125,4.03125v50.92813c0,2.28437 1.74688,4.03125 4.03125,4.03125c2.15,0 4.03125,-1.88125 4.03125,-4.03125v-50.92813c0,-2.28437 -1.74687,-4.03125 -4.03125,-4.03125M133.97188,22.0375c-2.28438,0 -4.03125,1.74688 -4.03125,4.03125v50.92813c0,2.28437 1.74687,4.03125 4.03125,4.03125c2.15,0 4.03125,-1.88125 4.03125,-4.03125v-50.92813c0,-2.28437 -1.74688,-4.03125 -4.03125,-4.03125M147.40938,22.0375c-2.28438,0 -4.03125,1.74688 -4.03125,4.03125v50.92813c0,2.28437 1.74687,4.03125 4.03125,4.03125c2.15,0 4.03125,-1.88125 4.03125,-4.03125v-50.92813c0,-2.28437 -1.74688,-4.03125 -4.03125,-4.03125"
         fill="#666666"
         id="path18" />
      <path
         d="M76.8625,153.1875h-51.6c-4.03125,0 -7.25625,-3.225 -7.25625,-7.25625v-50.92813c0,-4.03125 3.225,-7.25625 7.25625,-7.25625h51.6c4.03125,0 7.25625,3.225 7.25625,7.25625v50.92813c0.13437,4.03125 -3.225,7.25625 -7.25625,7.25625zM26.06875,145.125h50.12188v-49.31562h-50.12187zM146.7375,153.1875h-51.6c-4.03125,0 -7.25625,-3.225 -7.25625,-7.25625v-50.92813c0,-4.03125 3.225,-7.25625 7.25625,-7.25625h51.6c4.03125,0 7.25625,3.225 7.25625,7.25625v50.92813c0,4.03125 -3.225,7.25625 -7.25625,7.25625zM95.80938,145.125h50.12188v-49.31562h-50.12187z"
         fill="#000000"
         id="path20" />
    </g>
  </g>
</svg>
