<svg version="1.1" xmlns="http://www.w3.org/2000/svg" xmlns:xlink="http://www.w3.org/1999/xlink" viewBox="0 0 172 172"><g fill="none" fill-rule="nonzero" stroke="none" stroke-width="1" stroke-linecap="butt" stroke-linejoin="miter" stroke-miterlimit="10" stroke-dasharray="" stroke-dashoffset="0" font-family="none" font-weight="none" font-size="none" text-anchor="none" style="mix-blend-mode: normal"><path d="M0,172v-172h172v172z" fill="none"></path><g id="Layer_1"><rect x="74" y="34" transform="scale(1.34375,1.34375)" width="50" height="90" fill="#cccccc"></rect><path d="M166.625,170.65625c-2.28438,0 -4.03125,-1.74687 -4.03125,-4.03125v-116.90625h-59.125v116.90625c0,2.28438 -1.74688,4.03125 -4.03125,4.03125h-94.0625c-2.28438,0 -4.03125,-1.74687 -4.03125,-4.03125c0,-2.28438 1.74687,-4.03125 4.03125,-4.03125h90.03125v-116.90625c0,-2.28438 1.74688,-4.03125 4.03125,-4.03125h67.1875c2.28438,0 4.03125,1.74687 4.03125,4.03125v120.9375c0,2.28438 -1.74687,4.03125 -4.03125,4.03125z" fill="#000000"></path><path d="M119.59375,112.875c-2.28437,0 -4.03125,-1.74688 -4.03125,-4.03125v-5.375c0,-2.28437 1.74688,-4.03125 4.03125,-4.03125c2.28437,0 4.03125,1.74688 4.03125,4.03125v5.375c0,2.28437 -1.74688,4.03125 -4.03125,4.03125z" fill="#000000"></path><path d="M166.625,9.40625h-161.25c-2.28438,0 -4.03125,-1.74688 -4.03125,-4.03125c0,-2.28438 1.74687,-4.03125 4.03125,-4.03125h161.25c2.28438,0 4.03125,1.74687 4.03125,4.03125c0,2.28437 -1.74687,4.03125 -4.03125,4.03125z" fill="#000000"></path><path d="M70.00938,103.33438l-20.15625,-20.15625c-1.6125,-1.6125 -4.16562,-1.6125 -5.64375,0c-1.6125,1.6125 -1.6125,4.16562 0,5.64375l13.30312,13.30313h-52.1375c-2.28438,0 -4.03125,1.74688 -4.03125,4.03125c0,2.28438 1.74687,4.03125 4.03125,4.03125h52.1375l-13.30312,13.30313c-1.6125,1.6125 -1.6125,4.16562 0,5.64375c0.80625,0.80625 1.88125,1.20937 2.82187,1.20937c0.94063,0 2.01563,-0.40312 2.82187,-1.20937l20.15625,-20.15625c1.6125,-1.6125 1.6125,-4.03125 0,-5.64375z" fill="#e74c3c"></path></g></g></svg>