<svg version="1.1" xmlns="http://www.w3.org/2000/svg" xmlns:xlink="http://www.w3.org/1999/xlink" viewBox="0 0 172 172"><g fill="none" fill-rule="nonzero" stroke="none" stroke-width="1" stroke-linecap="butt" stroke-linejoin="miter" stroke-miterlimit="10" stroke-dasharray="" stroke-dashoffset="0" font-family="none" font-weight="none" font-size="none" text-anchor="none" style="mix-blend-mode: normal"><path d="M0,172v-172h172v172z" fill="none"></path><g><path d="M139.75,133.03125c0,25.93437 -30.1,33.59375 -67.1875,33.59375c-37.0875,0 -67.1875,-7.65938 -67.1875,-33.59375c0,-25.93438 30.1,-53.75 67.1875,-53.75c37.0875,0 67.1875,27.81562 67.1875,53.75z" fill="#d5bb9f"></path><path d="M166.625,73.90625v-10.75h-10.75c-11.825,0 -21.5,9.675 -21.5,21.5c0,-11.825 -9.675,-21.5 -21.5,-21.5h-10.75v10.75c0,11.825 9.675,21.5 21.5,21.5c0,0 -6.18125,0 -10.75,0h-4.03125c-3.7625,0 -6.71875,2.95625 -6.71875,6.71875v4.03125c0,11.825 9.675,21.5 21.5,21.5c0,0 -6.18125,0 -10.75,0h-4.03125c-3.7625,0 -6.71875,2.95625 -6.71875,6.71875v4.03125c0,11.825 9.675,21.5 21.5,21.5h10.75h10.75c11.825,0 21.5,-9.675 21.5,-21.5v-4.03125c0,-3.7625 -2.95625,-6.71875 -6.71875,-6.71875h-4.03125c-4.56875,0 -10.75,0 -10.75,0c11.825,0 21.5,-9.675 21.5,-21.5v-4.03125c0,-3.7625 -2.95625,-6.71875 -6.71875,-6.71875h-4.03125c-4.56875,0 -10.75,0 -10.75,0c11.825,0 21.5,-9.675 21.5,-21.5z" fill="#d5bb9f"></path><path d="M91.375,117.84688c-6.58437,-14.5125 -18.00625,-25.8 -27.14375,-33.99687c6.9875,-0.80625 14.10938,-0.67187 21.09687,0.67188c2.15,0.40312 4.3,-1.075 4.70313,-3.225c0.40313,-2.15 -1.075,-4.3 -3.225,-4.70312c-10.75,-2.01562 -21.76875,-1.74688 -32.38437,0.80625c-2.15,0.5375 -3.49375,2.6875 -2.95625,4.8375c0.13437,0.80625 0.67188,1.47813 1.20937,2.01563v0l1.6125,1.34375c9.54063,8.33125 22.70938,19.8875 29.83125,35.475c0.67188,1.47812 2.15,2.41875 3.62813,2.41875c0.5375,0 1.075,-0.13437 1.6125,-0.40313c2.01563,-0.94062 2.95625,-3.225 2.01563,-5.24063zM92.04688,161.7875c-5.9125,0.5375 -12.3625,0.80625 -19.48437,0.80625c-19.8875,0 -35.34063,-2.28438 -45.95625,-6.71875c-11.55625,-4.97188 -17.2,-12.3625 -17.2,-22.84375c0,-12.09375 7.25625,-24.85937 19.61875,-34.66875c11.01875,5.10625 20.425,13.70625 29.5625,26.875c0.80625,1.075 2.01563,1.74688 3.35938,1.74688c0.80625,0 1.6125,-0.26875 2.28438,-0.67187c1.88125,-1.20938 2.28438,-3.7625 1.075,-5.64375c-10.61563,-15.45312 -21.90313,-25.12813 -35.475,-30.77187c-0.13438,0 -0.26875,0 -0.26875,0c-1.075,-0.26875 -2.28437,-0.13437 -3.35937,0.67188c-15.5875,11.42188 -24.85938,27.27812 -24.85938,42.4625c0,24.99375 23.91875,37.625 71.21875,37.625c7.25625,0 14.10938,-0.26875 20.29062,-0.94063c2.15,-0.26875 3.89688,-2.15 3.62813,-4.43437c-0.26875,-2.15 -2.28438,-3.7625 -4.43438,-3.49375z" fill="#000000"></path><path d="M118.25,49.71875c-2.28437,0 -4.03125,-1.74687 -4.03125,-4.03125v-26.875c0,-2.28438 1.74688,-4.03125 4.03125,-4.03125c2.28437,0 4.03125,1.74687 4.03125,4.03125v26.875c0,2.28438 -1.74688,4.03125 -4.03125,4.03125zM150.5,49.71875c-2.28438,0 -4.03125,-1.74687 -4.03125,-4.03125v-26.875c0,-2.28438 1.74687,-4.03125 4.03125,-4.03125c2.28438,0 4.03125,1.74687 4.03125,4.03125v26.875c0,2.28438 -1.74687,4.03125 -4.03125,4.03125z" fill="#000000"></path><path d="M145.125,99.4375c14.10938,0 25.53125,-11.42187 25.53125,-25.53125v-10.75c0,-2.28438 -1.74687,-4.03125 -4.03125,-4.03125h-10.75c-6.71875,0 -12.9,2.6875 -17.46875,6.9875v-60.7375c0,-2.28438 -1.74687,-4.03125 -4.03125,-4.03125c-2.28438,0 -4.03125,1.74687 -4.03125,4.03125v60.7375c-4.56875,-4.3 -10.75,-6.9875 -17.46875,-6.9875h-10.75c-2.28437,0 -4.03125,1.74687 -4.03125,4.03125v10.75c0,14.10938 11.42188,25.53125 25.53125,25.53125h6.71875v24.1875h-6.71875c-9.675,0 -17.46875,-7.79375 -17.46875,-17.46875v-4.03125c0,-2.28437 -1.74688,-4.03125 -4.03125,-4.03125c-2.28437,0 -4.03125,1.74688 -4.03125,4.03125v4.03125c0,14.10938 11.42188,25.53125 25.53125,25.53125h6.71875v24.1875h-6.71875c-9.675,0 -17.46875,-7.79375 -17.46875,-17.46875v-2.6875c0,-2.28438 -1.74688,-4.03125 -4.03125,-4.03125c-2.28437,0 -4.03125,1.74687 -4.03125,4.03125v2.6875c0,14.10938 11.42188,25.53125 25.53125,25.53125h6.71875v2.6875c0,2.28438 1.74687,4.03125 4.03125,4.03125c2.28438,0 4.03125,-1.74687 4.03125,-4.03125v-2.6875h6.71875c14.10938,0 25.53125,-11.42187 25.53125,-25.53125v-4.03125c0,-2.28438 -1.74687,-4.03125 -4.03125,-4.03125c-2.28438,0 -4.03125,1.74687 -4.03125,4.03125v4.03125c0,9.675 -7.79375,17.46875 -17.46875,17.46875h-6.71875v-24.1875h6.71875c14.10938,0 25.53125,-11.42187 25.53125,-25.53125v-4.03125c0,-2.28437 -1.74687,-4.03125 -4.03125,-4.03125c-2.28438,0 -4.03125,1.74688 -4.03125,4.03125v4.03125c0,9.675 -7.79375,17.46875 -17.46875,17.46875h-6.71875v-24.1875zM155.875,67.1875h6.71875v6.71875c0,9.675 -7.79375,17.46875 -17.46875,17.46875h-6.71875v-6.71875c0,-9.675 7.79375,-17.46875 17.46875,-17.46875zM106.15625,73.90625v-6.71875h6.71875c9.675,0 17.46875,7.79375 17.46875,17.46875v6.71875h-6.71875c-9.675,0 -17.46875,-7.79375 -17.46875,-17.46875z" fill="#000000"></path></g></g></svg>