<svg version="1.1" xmlns="http://www.w3.org/2000/svg" xmlns:xlink="http://www.w3.org/1999/xlink" viewBox="0 0 172 172"><g fill="none" fill-rule="nonzero" stroke="none" stroke-width="1" stroke-linecap="butt" stroke-linejoin="miter" stroke-miterlimit="10" stroke-dasharray="" stroke-dashoffset="0" font-family="none" font-weight="none" font-size="none" text-anchor="none" style="mix-blend-mode: normal"><path d="M0,172v-172h172v172z" fill="none"></path><g id="Layer_1"><path d="M142.975,29.025v0c-31.44375,-31.57812 -82.50625,-31.57812 -113.95,0c-31.57812,31.44375 -31.57812,82.50625 0,113.95c15.72187,15.72188 36.28125,23.65 56.975,23.65c9.94375,0 20.02188,-1.88125 29.42813,-5.50938c10.07813,-3.89687 19.48437,-9.94375 27.54687,-18.00625c12.9,-12.9 20.55938,-29.15937 22.84375,-45.95625c3.35938,-24.1875 -4.16563,-49.58437 -22.84375,-68.12812z" fill="#ffffff"></path><circle cx="64" cy="64" transform="scale(1.34375,1.34375)" r="36" fill="#8ce5c3"></circle><path d="M86,106.15625c-1.075,0 -2.15,-0.40313 -2.82188,-1.20938l-20.15625,-20.15625c-1.6125,-1.6125 -1.6125,-4.16563 0,-5.64375c1.6125,-1.6125 4.16562,-1.6125 5.64375,0l17.06562,17.06562l37.49062,-43.80625c1.47813,-1.74687 4.03125,-1.88125 5.64375,-0.40312c1.74688,1.47812 1.88125,4.03125 0.40313,5.64375l-40.3125,47.03125c-0.67187,0.80625 -1.74687,1.34375 -2.95625,1.34375c0.13437,0.13437 0,0.13437 0,0.13437z" fill="#000000"></path><path d="M86,170.65625c-46.62812,0 -84.65625,-38.02812 -84.65625,-84.65625c0,-46.62812 38.02812,-84.65625 84.65625,-84.65625c46.62813,0 84.65625,38.02812 84.65625,84.65625c0,46.62813 -38.02812,84.65625 -84.65625,84.65625zM86,9.40625c-42.19375,0 -76.59375,34.4 -76.59375,76.59375c0,42.19375 34.4,76.59375 76.59375,76.59375c42.19375,0 76.59375,-34.4 76.59375,-76.59375c0,-42.19375 -34.4,-76.59375 -76.59375,-76.59375z" fill="#000000"></path></g></g></svg>