<svg version="1.1" xmlns="http://www.w3.org/2000/svg" xmlns:xlink="http://www.w3.org/1999/xlink" viewBox="0 0 172 172"><g fill="none" fill-rule="nonzero" stroke="none" stroke-width="1" stroke-linecap="butt" stroke-linejoin="miter" stroke-miterlimit="10" stroke-dasharray="" stroke-dashoffset="0" font-family="none" font-weight="none" font-size="none" text-anchor="none" style="mix-blend-mode: normal"><path d="M0,172v-172h172v172z" fill="none"></path><g><path d="M53.07813,143.64688c-11.95938,1.20938 -22.17187,-8.19687 -22.17187,-20.15625v-43.26875l-3.35937,-3.35937c-4.97188,-4.97187 -7.79375,-11.69062 -7.79375,-18.8125c0,-13.03438 9.40625,-24.05312 22.17187,-26.20312c29.69688,-4.97188 59.93125,-4.97188 89.62813,0c12.76563,2.15 22.17188,13.16875 22.17188,26.20313c0,6.9875 -2.82322,13.84062 -7.79509,18.8125l-3.35937,3.35938v43.26875c0,11.95803 -10.34553,21.23125 -22.17188,20.15625c-22.43928,-2.15 -45.01428,-2.15 -67.32053,0" fill="#f8d0af"></path><path d="M87.79256,28.15963c-4.44916,0 -8.89831,0.11019 -13.34881,0.32788c10.75,0.5375 21.5,1.6125 32.11563,3.35938c12.76563,2.15 22.17188,13.16875 22.17188,26.20313c0,6.9875 -2.82187,13.84062 -7.79375,18.8125l-3.35937,3.35938v43.26875c0,8.73437 -5.50937,15.98928 -13.03437,18.94687c5.375,0.26875 10.88572,0.67188 16.26072,1.20937c0.36819,0.03763 0.73369,0.0645 1.09784,0.08197c0.12094,0.00269 0.24188,0.00269 0.36281,0.00269c11.02681,0 20.30675,-8.91578 20.30675,-20.24091v-43.26875l3.35938,-3.35937c4.97187,-4.97187 7.79509,-11.825 7.79509,-18.8125c0,-13.03438 -9.40625,-24.05312 -22.17187,-26.20312c-10.99591,-1.84094 -22.06303,-3.00059 -33.15031,-3.47763c-3.53675,-0.13975 -7.0735,-0.20963 -10.61159,-0.20963" fill="#dfbb9d"></path><path d="M55.22813,134.10625c-7.12187,0.40313 -13.70625,-4.70312 -14.24375,-11.95803c0,-0.26875 0,-0.67187 0,-0.94063v-39.64197l-4.8375,-4.97187c-3.35937,-3.35937 -5.64375,-7.65937 -6.18125,-12.3625c-1.20937,-11.01875 6.18125,-20.69375 16.79688,-22.44063c0.5375,-0.13438 1.075,-0.13438 1.74687,-0.26875c23.1125,-2.01562 23.1125,-2.01562 43.94063,-0.40313c1.075,0.13437 2.15134,0.26875 3.225,0.5375c9.94241,1.6125 17.7375,10.07813 17.7375,20.15625c0,5.375 -2.15134,10.48125 -5.9125,14.37812l-5.24063,5.24063v39.64062c0,0.40447 0,0.67188 0,1.07634c-0.53616,6.71875 -6.45,11.55625 -13.16875,11.42187c-3.7625,-0.13572 -7.65937,-0.13572 -11.42187,-0.13572c-7.39062,0 -14.91562,0.13438 -22.44063,0.67188z" fill="#fbe4d6"></path><path d="M122.28125,147.8125c-0.80625,0 -1.6125,0 -2.41875,-0.13438c-22.0375,-2.15134 -44.47812,-2.15134 -66.38125,0c-7.25625,0.67188 -14.37812,-1.74822 -19.48437,-6.9875c-4.56875,-4.56875 -7.12187,-10.75 -7.12187,-17.2v-41.65625l-2.15,-2.15c-5.77812,-5.77812 -9.00312,-13.4375 -9.00312,-21.63437c0,-15.05 10.75,-27.68125 25.53125,-30.1c29.96562,-4.97188 61.00491,-4.97188 90.8375,0c14.78125,2.41875 25.53125,15.18438 25.53125,30.1c0,8.19687 -3.22366,15.85625 -9.00312,21.63438l-2.15,2.28437v41.65625c0,13.30312 -10.75,24.1875 -24.1875,24.1875zM86.67188,138.00313c11.2875,0 22.70938,0.53616 33.99688,1.74687c0.5375,0 1.075,0.13438 1.6125,0.13438c8.86875,0 16.125,-7.25491 16.125,-16.125v-43.26875c0,-1.075 0.40312,-2.15 1.20937,-2.82187l3.35938,-3.35937c4.29866,-4.3 6.58303,-9.94375 6.58303,-15.99063c0,-11.01875 -7.92678,-20.425 -18.8125,-22.17187c-29.025,-4.8375 -59.125,-4.8375 -88.28437,0c-10.88437,1.88125 -18.8125,11.15313 -18.8125,22.17188c0,6.04687 2.28437,11.69062 6.58437,15.85625l3.35938,3.35938c0.80625,0.80625 1.20938,1.74688 1.20938,2.82188l0.13572,43.26875c0,4.3 1.74688,8.46562 4.70313,11.42188c3.49375,3.35938 8.19687,5.10625 13.03438,4.56875c11.2875,-1.075 22.70938,-1.6125 33.99687,-1.6125z" fill="#000000"></path></g></g></svg>