<svg version="1.1" xmlns="http://www.w3.org/2000/svg" xmlns:xlink="http://www.w3.org/1999/xlink" viewBox="0 0 172 172"><g fill="none" fill-rule="nonzero" stroke="none" stroke-width="1" stroke-linecap="butt" stroke-linejoin="miter" stroke-miterlimit="10" stroke-dasharray="" stroke-dashoffset="0" font-family="none" font-weight="none" font-size="none" text-anchor="none" style="mix-blend-mode: normal"><path d="M0,172v-172h172v172z" fill="none"></path><g><path d="M126.3125,102.125h-120.9375v57.78125c0,3.7625 2.95625,6.71875 6.71875,6.71875h107.5c3.7625,0 6.71875,-2.95625 6.71875,-6.71875z" fill="#ffffff"></path><path d="M76.59375,67.1875c-7.42133,0 -13.4375,6.01617 -13.4375,13.4375c0,7.42133 6.01617,13.4375 13.4375,13.4375c7.42133,0 13.4375,-6.01617 13.4375,-13.4375c0,-7.42133 -6.01617,-13.4375 -13.4375,-13.4375z" fill="#6f4986"></path><path d="M76.59375,98.09375c-9.675,0 -17.46875,-7.79375 -17.46875,-17.46875c0,-9.675 7.79375,-17.46875 17.46875,-17.46875c9.675,0 17.46875,7.79375 17.46875,17.46875c0,9.675 -7.79375,17.46875 -17.46875,17.46875zM76.59375,71.21875c-5.24062,0 -9.40625,4.16563 -9.40625,9.40625c0,5.24062 4.16563,9.40625 9.40625,9.40625c5.24062,0 9.40625,-4.16563 9.40625,-9.40625c0,-5.24062 -4.16563,-9.40625 -9.40625,-9.40625z" fill="#000000"></path><path d="M63.15625,80.625c0,7.39063 -6.04687,13.4375 -13.4375,13.4375c-4.03125,0 -7.79375,-1.88125 -10.2125,-4.70312c-2.01562,-2.28437 -3.225,-5.375 -3.225,-8.73437c0,-7.39062 6.04688,-13.4375 13.4375,-13.4375c7.39063,0 13.4375,6.04688 13.4375,13.4375z" fill="#b379db"></path><path d="M45.55313,81.56563c-1.075,0 -2.15,-0.40312 -2.82188,-1.20937c-0.80625,-0.80625 -1.20937,-1.74687 -1.20937,-2.82188c0,-1.075 0.40312,-2.15 1.20937,-2.82187c1.47813,-1.47813 4.16563,-1.47813 5.64375,0c0.80625,0.67188 1.20938,1.74687 1.20938,2.82187c0,1.075 -0.40313,2.15 -1.20938,2.82188c-0.67187,0.67188 -1.74687,1.20937 -2.82187,1.20937zM72.42812,81.56563c-1.075,0 -2.15,-0.40312 -2.82187,-1.20937c-0.80625,-0.80625 -1.20938,-1.74687 -1.20938,-2.82188c0,-1.075 0.40313,-2.15 1.20938,-2.82187c0.13437,-0.13438 0.40312,-0.40313 0.67188,-0.5375c0.26875,-0.13437 0.40312,-0.26875 0.67188,-0.40312c0.26875,-0.13438 0.5375,-0.13438 0.80625,-0.26875c1.34375,-0.26875 2.6875,0.13438 3.62813,1.075c0.80625,0.80625 1.20937,1.74688 1.20937,2.82188c0,1.075 -0.40313,2.15 -1.20937,2.82187c-0.80625,0.80625 -1.88125,1.34375 -2.95625,1.34375z" fill="#ffffff"></path><path d="M49.71875,98.09375c-2.28438,0 -4.03125,-1.74688 -4.03125,-4.03125c0,-2.28437 1.74687,-4.03125 4.03125,-4.03125c5.24063,0 9.40625,-4.16563 9.40625,-9.40625c0,-5.24062 -4.16562,-9.40625 -9.40625,-9.40625c-5.24063,0 -9.40625,4.16563 -9.40625,9.40625c0,2.28437 -1.74688,4.03125 -4.03125,4.03125c-2.28437,0 -4.03125,-1.74688 -4.03125,-4.03125c0,-9.675 7.79375,-17.46875 17.46875,-17.46875c9.675,0 17.46875,7.79375 17.46875,17.46875c0,9.675 -7.79375,17.46875 -17.46875,17.46875z" fill="#000000"></path><path d="M118.25,138.40625h-104.8125c-4.43437,0 -8.0625,-3.62813 -8.0625,-8.0625v0c0,-4.43438 3.62813,-8.0625 8.0625,-8.0625h104.8125c4.43438,0 8.0625,3.62812 8.0625,8.0625v0c0,4.43437 -3.62812,8.0625 -8.0625,8.0625z" fill="#ffdd7d"></path><path d="M126.3125,134.375c-2.28437,0 -4.03125,-1.74687 -4.03125,-4.03125c0,-2.28438 -1.74688,-4.03125 -4.03125,-4.03125c-2.28437,0 -4.03125,-1.74688 -4.03125,-4.03125c0,-2.28437 1.74688,-4.03125 4.03125,-4.03125c6.71875,0 12.09375,5.375 12.09375,12.09375c0,2.28438 -1.74687,4.03125 -4.03125,4.03125zM52.40625,142.4375h-47.03125c-2.28438,0 -4.03125,-1.74687 -4.03125,-4.03125c0,-2.28438 1.74687,-4.03125 4.03125,-4.03125h47.03125c2.28438,0 4.03125,1.74687 4.03125,4.03125c0,2.28438 -1.74687,4.03125 -4.03125,4.03125z" fill="#000000"></path><path d="M118.25,142.4375c-2.28437,0 -4.03125,-1.74687 -4.03125,-4.03125c0,-2.28438 1.74688,-4.03125 4.03125,-4.03125c2.28437,0 4.03125,-1.74687 4.03125,-4.03125c0,-2.28438 1.74688,-4.03125 4.03125,-4.03125c2.28438,0 4.03125,1.74687 4.03125,4.03125c0,6.71875 -5.375,12.09375 -12.09375,12.09375z" fill="#000000"></path><path d="M118.25,166.625h-104.8125c-4.43437,0 -8.0625,-3.62813 -8.0625,-8.0625v0c0,-4.43437 3.62813,-8.0625 8.0625,-8.0625h104.8125c4.43438,0 8.0625,3.62813 8.0625,8.0625v0c0,4.43437 -3.62812,8.0625 -8.0625,8.0625z" fill="#ffdd7d"></path><path d="M126.3125,162.59375c-2.28437,0 -4.03125,-1.74687 -4.03125,-4.03125c0,-2.28438 -1.74688,-4.03125 -4.03125,-4.03125c-2.28437,0 -4.03125,-1.74687 -4.03125,-4.03125c0,-2.28438 1.74688,-4.03125 4.03125,-4.03125c6.71875,0 12.09375,5.375 12.09375,12.09375c0,2.28438 -1.74687,4.03125 -4.03125,4.03125z" fill="#000000"></path><path d="M114.21875,170.65625h-108.84375c-2.28438,0 -4.03125,-1.74687 -4.03125,-4.03125c0,-2.28438 1.74687,-4.03125 4.03125,-4.03125h108.84375c2.41875,0 8.0625,-0.40312 8.0625,-4.03125c0,-2.28438 1.74688,-4.03125 4.03125,-4.03125c2.28438,0 4.03125,1.74687 4.03125,4.03125c0,5.9125 -4.3,12.09375 -16.125,12.09375z" fill="#000000"></path><path d="M138.40625,170.65625h-98.09375c-2.28437,0 -4.03125,-1.74687 -4.03125,-4.03125c0,-2.28438 1.74688,-4.03125 4.03125,-4.03125h98.09375c2.28438,0 4.03125,1.74687 4.03125,4.03125c0,2.28438 -1.74687,4.03125 -4.03125,4.03125zM158.5625,170.65625c-1.075,0 -2.15,-0.40312 -2.82188,-1.20937c-0.80625,-0.80625 -1.20937,-1.74688 -1.20937,-2.82188c0,-0.26875 0,-0.5375 0.13438,-0.80625c0,-0.26875 0.13437,-0.5375 0.26875,-0.80625c0.13438,-0.26875 0.26875,-0.40312 0.40313,-0.67187c0.13437,-0.26875 0.26875,-0.40312 0.5375,-0.67187c1.47813,-1.47813 4.16563,-1.47813 5.64375,0c0.80625,0.80625 1.20937,1.74687 1.20937,2.82187c0,0.26875 0,0.5375 -0.13437,0.80625c0,0.26875 -0.13438,0.5375 -0.26875,0.80625c-0.13438,0.26875 -0.26875,0.5375 -0.40312,0.67188c-0.13438,0.26875 -0.26875,0.40312 -0.5375,0.5375c-0.67187,0.94063 -1.74688,1.34375 -2.82188,1.34375z" fill="#000000"></path><path d="M118.25,110.1875h-5.375c-3.7625,0 -6.71875,2.95625 -6.71875,6.71875v14.78125c0,3.7625 -2.95625,6.71875 -6.71875,6.71875v0c-3.7625,0 -6.71875,-2.95625 -6.71875,-6.71875v-14.78125c0,-3.7625 -2.95625,-6.71875 -6.71875,-6.71875v0c-3.7625,0 -6.71875,2.95625 -6.71875,6.71875v30.90625c0,3.7625 -2.95625,6.71875 -6.71875,6.71875v0c-3.7625,0 -6.71875,-2.95625 -6.71875,-6.71875v-30.90625c0,-3.7625 -2.95625,-6.71875 -6.71875,-6.71875h-45.6875c-4.43437,0 -8.0625,-3.62812 -8.0625,-8.0625v0c0,-4.43438 3.62813,-8.0625 8.0625,-8.0625h104.8125c4.43438,0 8.0625,3.62812 8.0625,8.0625v0c0,4.43438 -3.62812,8.0625 -8.0625,8.0625z" fill="#ffa6b5"></path><path d="M65.84375,120.9375c-2.28438,0 -4.03125,-1.74688 -4.03125,-4.03125c0,-1.47812 -1.20938,-2.6875 -2.6875,-2.6875h-12.9c-2.28438,0 -4.03125,-1.74688 -4.03125,-4.03125c0,-2.28437 1.74687,-4.03125 4.03125,-4.03125h12.9c5.9125,0 10.75,4.8375 10.75,10.75c0,2.28437 -1.74688,4.03125 -4.03125,4.03125z" fill="#000000"></path><path d="M72.5625,158.5625c-5.9125,0 -10.75,-4.8375 -10.75,-10.75v-17.46875c0,-2.28438 1.74687,-4.03125 4.03125,-4.03125c2.28437,0 4.03125,1.74687 4.03125,4.03125v17.46875c0,1.47813 1.20937,2.6875 2.6875,2.6875c1.47813,0 2.6875,-1.20937 2.6875,-2.6875v-30.90625c0,-5.9125 4.8375,-10.75 10.75,-10.75c5.9125,0 10.75,4.8375 10.75,10.75c0,2.28437 -1.74688,4.03125 -4.03125,4.03125c-2.28437,0 -4.03125,-1.74688 -4.03125,-4.03125c0,-1.47812 -1.20938,-2.6875 -2.6875,-2.6875c-1.47812,0 -2.6875,1.20938 -2.6875,2.6875v30.90625c0,5.9125 -4.8375,10.75 -10.75,10.75z" fill="#000000"></path><path d="M99.4375,142.4375c-5.9125,0 -10.75,-4.8375 -10.75,-10.75v-1.34375c0,-2.28438 1.74688,-4.03125 4.03125,-4.03125c2.28437,0 4.03125,1.74687 4.03125,4.03125v1.34375c0,1.47813 1.20938,2.6875 2.6875,2.6875c1.47812,0 2.6875,-1.20937 2.6875,-2.6875v-14.78125c0,-5.9125 4.8375,-10.75 10.75,-10.75h5.375c2.28437,0 4.03125,-1.74688 4.03125,-4.03125c0,-2.28437 -1.74688,-4.03125 -4.03125,-4.03125h-104.8125c-2.28437,0 -4.03125,1.74688 -4.03125,4.03125c0,2.28437 1.74688,4.03125 4.03125,4.03125h32.7875c2.28437,0 4.03125,1.74688 4.03125,4.03125c0,2.28437 -1.74688,4.03125 -4.03125,4.03125h-32.7875c-6.71875,0 -12.09375,-5.375 -12.09375,-12.09375c0,-6.71875 5.375,-12.09375 12.09375,-12.09375h104.8125c6.71875,0 12.09375,5.375 12.09375,12.09375c0,6.71875 -5.375,12.09375 -12.09375,12.09375h-5.375c-1.47812,0 -2.6875,1.20938 -2.6875,2.6875v14.78125c0,5.9125 -4.8375,10.75 -10.75,10.75z" fill="#000000"></path></g></g></svg>