<svg version="1.1" xmlns="http://www.w3.org/2000/svg" xmlns:xlink="http://www.w3.org/1999/xlink" viewBox="0 0 172 172"><g fill="none" fill-rule="nonzero" stroke="none" stroke-width="1" stroke-linecap="butt" stroke-linejoin="miter" stroke-miterlimit="10" stroke-dasharray="" stroke-dashoffset="0" font-family="none" font-weight="none" font-size="none" text-anchor="none" style="mix-blend-mode: normal"><path d="M0,172v-172h172v172z" fill="none"></path><g fill="#000000"><path d="M86,0.33594c-8.43502,0 -15.56166,4.69558 -26.12922,10.13188c-10.56756,5.4363 -24.71784,11.99823 -46.84984,16.85734l-2.70094,0.59125v2.76812c0,52.7024 18.42776,87.89227 36.93297,109.73062c18.50521,21.83835 37.3025,30.55016 37.3025,30.55016l1.51844,0.69875l1.48485,-0.75922c0,0 74.12125,-38.20082 74.12125,-140.22031v-2.76812l-2.70094,-0.59125c-22.13201,-4.85911 -36.28229,-11.42105 -46.84985,-16.85734c-10.56756,-5.4363 -17.69419,-10.13188 -26.12922,-10.13188zM86,7.21594c5.6621,0 12.19086,3.81988 22.98485,9.37266c10.24553,5.27064 24.69859,11.66182 45.59344,16.58859c-1.2187,93.33242 -64.18209,128.28491 -68.63203,130.63266c-2.14877,-1.04393 -17.03902,-8.48832 -33.43922,-27.8425c-17.30193,-20.41834 -34.48033,-53.20799 -35.09203,-102.79016c20.89877,-4.92698 35.35346,-11.31736 45.60015,-16.58859c10.79399,-5.55278 17.32275,-9.37266 22.98485,-9.37266zM86,37.84c-11.352,0 -20.64,9.62931 -20.64,21.32531v6.19469h-3.78265c-3.784,0 -6.53735,3.09735 -6.53735,6.53735v34.74265c0,3.784 2.75335,6.88 6.53735,6.88h48.84531c3.44,0 6.53735,-3.09735 6.53735,-6.53735v-35.08531c0,-3.44 -2.75335,-6.53735 -6.53735,-6.53735h-3.78265v-6.19469c0,-11.696 -9.288,-21.32531 -20.64,-21.32531zM86,44.72c7.568,0 13.76,6.53331 13.76,14.44531v6.19469h-27.52v-6.19469c0,-7.912 6.192,-14.44531 13.76,-14.44531zM61.92,72.24h48.16v34.4h-48.16zM86,82.56c-2.752,0 -4.81735,2.06535 -4.81735,4.81735c0,1.376 0.688,2.408 1.72,3.44v4.46797c0,1.72 1.37735,3.09734 3.09735,3.09734c1.72,0 3.09735,-1.37734 3.09735,-3.09734v-4.46797c1.032,-1.032 1.72,-2.064 1.72,-3.44c0,-2.752 -2.06535,-4.81735 -4.81735,-4.81735z"></path></g></g></svg>