<svg version="1.1" xmlns="http://www.w3.org/2000/svg" xmlns:xlink="http://www.w3.org/1999/xlink" viewBox="0 0 172 172"><g fill="none" fill-rule="nonzero" stroke="none" stroke-width="1" stroke-linecap="butt" stroke-linejoin="miter" stroke-miterlimit="10" stroke-dasharray="" stroke-dashoffset="0" font-family="none" font-weight="none" font-size="none" text-anchor="none" style="mix-blend-mode: normal"><path d="M0,172v-172h172v172z" fill="none"></path><g><path d="M123.49063,38.96875h-74.98125c-5.10625,0 -9.675,2.82187 -11.95937,7.25625l-27.14375,53.2125v40.3125c0,7.39063 6.04688,13.4375 13.4375,13.4375h126.3125c7.39063,0 13.4375,-6.04687 13.4375,-13.4375v-40.3125l-27.14375,-53.2125c-2.28437,-4.43438 -6.9875,-7.25625 -11.95937,-7.25625z" fill="#ecf0f1"></path><path d="M120.74522,33.40348c-10.49516,10.49552 -10.49486,27.51183 0.00066,38.00699c10.49552,10.49516 27.51183,10.49486 38.00699,-0.00066c10.49516,-10.49552 10.49486,-27.51183 -0.00066,-38.00699c-10.49552,-10.49516 -27.51183,-10.49486 -38.00699,0.00066z" fill="#ee5670"></path><path d="M149.15625,56.4375h-18.8125c-2.28438,0 -4.03125,-1.74687 -4.03125,-4.03125c0,-2.28438 1.74687,-4.03125 4.03125,-4.03125h18.8125c2.28438,0 4.03125,1.74687 4.03125,4.03125c0,2.28438 -1.74687,4.03125 -4.03125,4.03125z" fill="#ecf0f1"></path><path d="M18.275,86c-0.67187,0 -1.20937,-0.13438 -1.88125,-0.40313c-2.01563,-1.075 -2.82188,-3.49375 -1.74688,-5.375l18.275,-35.74375c2.95625,-5.9125 9.00312,-9.54062 15.5875,-9.54062h46.7625c2.28437,0 4.03125,1.74688 4.03125,4.03125c0,2.28437 -1.74688,4.03125 -4.03125,4.03125h-46.7625c-3.49375,0 -6.71875,2.01563 -8.33125,5.10625l-18.275,35.74375c-0.67187,1.34375 -2.15,2.15 -3.62813,2.15zM149.15625,157.21875h-126.3125c-9.675,0 -17.46875,-7.79375 -17.46875,-17.46875v-40.3125c0,-2.28437 1.74688,-4.03125 4.03125,-4.03125h37.625c1.34375,0 2.55313,0.67188 3.35938,1.74688v0c7.65938,11.55625 20.425,18.40937 34.26563,18.40937c13.84063,0 26.60625,-6.85312 34.26563,-18.275c0.67188,-1.20938 2.01563,-1.88125 3.35938,-1.88125h40.3125c2.28438,0 4.03125,1.74688 4.03125,4.03125v40.3125c0,9.675 -7.79375,17.46875 -17.46875,17.46875zM13.4375,103.46875v36.28125c0,5.24062 4.16562,9.40625 9.40625,9.40625h126.3125c5.24062,0 9.40625,-4.16563 9.40625,-9.40625v-36.28125h-34.13125c-9.27187,12.63125 -24.05312,20.15625 -39.775,20.15625c-15.72187,0 -30.50313,-7.525 -39.775,-20.15625z" fill="#000000"></path></g></g></svg>