<svg version="1.1" xmlns="http://www.w3.org/2000/svg" xmlns:xlink="http://www.w3.org/1999/xlink" viewBox="0 0 172 172"><g fill="none" fill-rule="nonzero" stroke="none" stroke-width="1" stroke-linecap="butt" stroke-linejoin="miter" stroke-miterlimit="10" stroke-dasharray="" stroke-dashoffset="0" font-family="none" font-weight="none" font-size="none" text-anchor="none" style="mix-blend-mode: normal"><path d="M0,172v-172h172v172z" fill="none"></path><g><path d="M32.25,141.09375h107.5c7.39063,0 13.4375,-6.04687 13.4375,-13.4375v-83.3125c0,-7.39062 -6.04687,-13.4375 -13.4375,-13.4375h-107.5c-7.39062,0 -13.4375,6.04688 -13.4375,13.4375v83.3125c0,7.39063 6.04688,13.4375 13.4375,13.4375z" fill="#fff0b3"></path><path d="M49.71875,134.375c0,3.7625 2.95625,6.71875 6.71875,6.71875h84.25313c7.39063,0 13.4375,-6.04687 13.4375,-13.4375v0h-97.69063c-3.7625,0 -6.71875,2.95625 -6.71875,6.71875z" fill="#fcca3d"></path><path d="M139.75,145.125h-107.5c-9.675,0 -17.46875,-7.79375 -17.46875,-17.46875v-65.84375c0,-2.28438 1.74687,-4.03125 4.03125,-4.03125c2.28438,0 4.03125,1.74687 4.03125,4.03125v65.84375c0,5.24062 4.16563,9.40625 9.40625,9.40625h107.5c5.24062,0 9.40625,-4.3 9.40625,-8.0625v-67.1875c0,-2.28438 1.74687,-4.03125 4.03125,-4.03125c2.28438,0 4.03125,1.74687 4.03125,4.03125v67.1875c0,8.6 -8.19688,16.125 -17.46875,16.125z" fill="#000000"></path><path d="M86,92.71875c-19.08125,0 -36.81875,-7.525 -49.9875,-21.36562c-1.47812,-1.6125 -1.47812,-4.16563 0.13438,-5.64375c1.6125,-1.47812 4.16562,-1.47812 5.64375,0.13438c11.69062,12.09375 27.27812,18.8125 44.075,18.8125c16.79688,0 32.51875,-6.71875 44.075,-18.8125c1.47813,-1.6125 4.03125,-1.6125 5.64375,-0.13438c1.6125,1.47813 1.6125,4.03125 0.13437,5.64375c-12.9,13.84062 -30.6375,21.36562 -49.71875,21.36562zM153.1875,48.375c-2.28438,0 -4.03125,-1.74687 -4.03125,-4.03125c0,-5.24063 -4.16563,-9.40625 -9.40625,-9.40625h-107.5c-5.24062,0 -9.40625,4.16562 -9.40625,9.40625c0,2.28438 -1.74687,4.03125 -4.03125,4.03125c-2.28438,0 -4.03125,-1.74687 -4.03125,-4.03125c0,-9.675 7.79375,-17.46875 17.46875,-17.46875h107.5c9.675,0 17.46875,7.79375 17.46875,17.46875c0,2.28438 -1.74687,4.03125 -4.03125,4.03125z" fill="#000000"></path></g></g></svg>