<svg version="1.1" xmlns="http://www.w3.org/2000/svg" xmlns:xlink="http://www.w3.org/1999/xlink" viewBox="0 0 172 172"><g fill="none" fill-rule="nonzero" stroke="none" stroke-width="1" stroke-linecap="butt" stroke-linejoin="miter" stroke-miterlimit="10" stroke-dasharray="" stroke-dashoffset="0" font-family="none" font-weight="none" font-size="none" text-anchor="none" style="mix-blend-mode: normal"><path d="M0,172v-172h172v172z" fill="none"></path><g id="Layer_1"><path d="M133.03125,166.625h-94.0625c-14.84844,0 -26.875,-12.02656 -26.875,-26.875v-86c0,-14.84844 12.02656,-26.875 26.875,-26.875h94.0625c14.84844,0 26.875,12.02656 26.875,26.875v86c0,14.84844 -12.02656,26.875 -26.875,26.875z" fill="#ffffff"></path><path d="M126.3125,67.1875c-32.59938,0 -59.125,26.52562 -59.125,59.125c0,15.57406 6.06031,29.73719 15.92344,40.3125h49.92031c14.84844,0 26.875,-12.02656 26.875,-26.875v-62.05437c-9.55406,-6.61125 -21.12375,-10.50813 -33.59375,-10.50813z" fill="#cde5e9"></path><circle cx="94" cy="94" transform="scale(1.34375,1.34375)" r="30" fill="#ffffff"></circle><path d="M83.0975,162.59375v0l-6.19469,0.01344c-31.63187,0.05375 -47.515,0.08062 -54.30094,-6.70531c-6.53062,-6.53063 -6.51719,-21.97031 -6.49031,-49.9875v-5.83187v-6.43656c0,-15.30531 -0.01344,-27.00937 0.71219,-35.86469h138.32563c0.45687,5.45563 0.63156,12.01313 0.69875,19.91438c0.01344,2.21719 1.81406,4.00437 4.03125,4.00437c0.01344,0 0.02687,0 0.02687,0c2.23063,-0.01344 4.01781,-1.84094 4.00438,-4.05813c-0.18812,-24.44281 -1.08844,-39.85563 -11.90562,-47.77031c-6.15438,-4.515 -15.06344,-6.15437 -28.38,-6.73219v-17.76437c0,-2.23063 -1.80063,-4.03125 -4.03125,-4.03125c-2.23063,0 -4.03125,1.80062 -4.03125,4.03125v17.5225c-5.89906,-0.09406 -12.52375,-0.08062 -19.98156,-0.06719c-3.05031,0.01344 -6.235,0.01344 -9.58094,0.01344c-3.34594,0 -6.53062,0 -9.58094,-0.01344c-7.47125,-0.01344 -14.09594,-0.02688 -19.98156,0.06719v-17.5225c0,-2.23063 -1.80063,-4.03125 -4.03125,-4.03125c-2.23062,0 -4.03125,1.80062 -4.03125,4.03125v17.75094c-15.31875,0.65844 -24.725,2.71437 -30.90625,8.88219c-9.46,9.46 -9.44656,26.88844 -9.40625,61.63781v6.43656v5.83187c-0.02687,31.16156 -0.04031,46.80281 8.85531,55.69844c8.45219,8.45219 23.59625,9.07031 52.51375,9.07031c2.40531,0 4.89125,0 7.48469,-0.01344l6.18125,-0.01344c2.23062,0 4.03125,-1.81406 4.03125,-4.03125c0,-2.23063 -1.80063,-4.03125 -4.03125,-4.03125zM76.40563,30.89281c3.05031,0.01344 6.24844,0.01344 9.59438,0.01344c3.34594,0 6.54406,0 9.59438,-0.01344c28.39344,-0.05375 44.04813,-0.09406 51.65375,5.46906c3.53406,2.59344 5.63031,6.79937 6.86656,13.35688h-136.25625c1.03469,-5.49594 2.6875,-9.37938 5.30781,-11.99969c6.93375,-6.92031 23.38125,-6.89344 53.23938,-6.82625z" fill="#000000"></path><path d="M126.3125,81.96875c-24.45625,0 -44.34375,19.8875 -44.34375,44.34375c0,24.45625 19.8875,44.34375 44.34375,44.34375c24.45625,0 44.34375,-19.8875 44.34375,-44.34375c0,-24.45625 -19.8875,-44.34375 -44.34375,-44.34375zM126.3125,162.59375c-20.00844,0 -36.28125,-16.27281 -36.28125,-36.28125c0,-20.00844 16.27281,-36.28125 36.28125,-36.28125c20.00844,0 36.28125,16.27281 36.28125,36.28125c0,20.00844 -16.27281,36.28125 -36.28125,36.28125z" fill="#000000"></path><path d="M130.34375,124.64625v-14.45875c0,-2.23062 -1.80062,-4.03125 -4.03125,-4.03125c-2.23062,0 -4.03125,1.80063 -4.03125,4.03125v16.125c0,1.075 0.43,2.09625 1.1825,2.84875l11.40844,11.40844c0.79281,0.79281 1.81406,1.1825 2.84875,1.1825c1.03469,0 2.06938,-0.38969 2.84875,-1.1825c1.57219,-1.57219 1.57219,-4.12531 0,-5.6975z" fill="#000000"></path></g></g></svg>