<svg version="1.1" xmlns="http://www.w3.org/2000/svg" xmlns:xlink="http://www.w3.org/1999/xlink" viewBox="0 0 172 172"><g fill="none" fill-rule="nonzero" stroke="none" stroke-width="1" stroke-linecap="butt" stroke-linejoin="miter" stroke-miterlimit="10" stroke-dasharray="" stroke-dashoffset="0" font-family="none" font-weight="none" font-size="none" text-anchor="none" style="mix-blend-mode: normal"><path d="M0,172v-172h172v172z" fill="none"></path><g fill="#000000"><path d="M70.95,8.6v12.9h-25.8c-5.9125,0 -10.75,4.8375 -10.75,10.75v111.8c0,5.9125 4.8375,10.75 10.75,10.75h81.7c5.9125,0 10.75,-4.8375 10.75,-10.75v-111.8c0,-5.9125 -4.8375,-10.75 -10.75,-10.75h-25.8v-12.9zM75.25,12.9h21.5v23.65h-21.5zM86,17.2c-2.37676,0 -4.3,1.92324 -4.3,4.3c0,2.37676 1.92324,4.3 4.3,4.3c2.37676,0 4.3,-1.92324 4.3,-4.3c0,-2.37676 -1.92324,-4.3 -4.3,-4.3zM45.15,25.8h25.8v8.6h-3.225c-1.78047,0 -3.225,1.44453 -3.225,3.225c0,1.78047 1.44453,3.225 3.225,3.225h36.55c1.78047,0 3.225,-1.44453 3.225,-3.225c0,-1.78047 -1.44453,-3.225 -3.225,-3.225h-3.225v-8.6h25.8c3.58613,0 6.45,2.86387 6.45,6.45v111.8c0,3.58613 -2.86387,6.45 -6.45,6.45h-81.7c-3.58613,0 -6.45,-2.86387 -6.45,-6.45v-111.8c0,-3.58613 2.86387,-6.45 6.45,-6.45zM86,55.9c-8.28926,0 -15.05,6.76074 -15.05,15.05c0,5.17344 2.64551,9.75899 6.64316,12.46328c-7.68457,3.28379 -13.09316,10.91797 -13.09316,19.78672h4.3c0,-9.52383 7.67617,-17.2 17.2,-17.2c9.52383,0 17.2,7.67617 17.2,17.2h4.3c0,-8.86875 -5.40859,-16.50293 -13.09316,-19.78672c3.99766,-2.7043 6.64316,-7.28984 6.64316,-12.46328c0,-8.28926 -6.76074,-15.05 -15.05,-15.05zM86,60.2c5.96289,0 10.75,4.78711 10.75,10.75c0,5.96289 -4.78711,10.75 -10.75,10.75c-5.96289,0 -10.75,-4.78711 -10.75,-10.75c0,-5.96289 4.78711,-10.75 10.75,-10.75zM64.5,116.1v4.3h43v-4.3zM64.5,126.85v4.3h38.7v-4.3z"></path></g></g></svg>