<svg version="1.1" xmlns="http://www.w3.org/2000/svg" xmlns:xlink="http://www.w3.org/1999/xlink" viewBox="0 0 172 172"><g fill="none" fill-rule="nonzero" stroke="none" stroke-width="1" stroke-linecap="butt" stroke-linejoin="miter" stroke-miterlimit="10" stroke-dasharray="" stroke-dashoffset="0" font-family="none" font-weight="none" font-size="none" text-anchor="none" style="mix-blend-mode: normal"><path d="M0,172v-172h172v172z" fill="none"></path><g><path d="M149.82813,163.53438h-106.15625c-2.28437,0 -4.03125,-1.74688 -4.03125,-4.03125c0,-2.28438 1.74688,-4.03125 4.03125,-4.03125h106.15625c5.24062,0 9.40625,-4.16563 9.40625,-9.40625v-96.34688c0,-2.28438 1.74687,-4.03125 4.03125,-4.03125c2.28438,0 4.03125,1.74687 4.03125,4.03125v96.2125c0,9.675 -7.79375,17.60313 -17.46875,17.60313z" fill="#000000"></path><path d="M131.01563,142.03438h-106.15625c-7.39062,0 -13.4375,-6.04687 -13.4375,-6.71875v-96.34688c0,-14.10937 6.04688,-20.15625 13.4375,-20.15625h106.15625c7.39063,0 13.4375,6.04688 13.4375,20.15625v96.2125c0,0.80625 -6.04687,6.85313 -13.4375,6.85313z" fill="#3498db"></path><path d="M131.01563,142.03438h-106.15625c-7.39062,0 -13.4375,-6.04687 -13.4375,-13.4375v-82.90938h133.03125v82.775c0,7.525 -6.04687,13.57188 -13.4375,13.57188z" fill="#ffffff"></path><path d="M131.01563,146.06563h-106.15625c-9.675,0 -17.46875,-7.79375 -17.46875,-17.46875v-82.90938c0,-2.28438 1.74687,-4.03125 4.03125,-4.03125c2.28437,0 4.03125,1.74687 4.03125,4.03125v82.775c0,5.24062 4.16562,9.40625 9.40625,9.40625h106.15625c5.24062,0 9.40625,-4.16563 9.40625,-9.40625v-82.775c0,-2.28438 1.74687,-4.03125 4.03125,-4.03125c2.28438,0 4.03125,1.74687 4.03125,4.03125v82.775c0,9.675 -7.79375,17.60313 -17.46875,17.60313z" fill="#000000"></path><path d="M144.45313,49.71875c-2.28438,0 -4.03125,-1.74687 -4.03125,-4.03125v-13.4375c0,-5.24062 -4.16563,-9.40625 -9.40625,-9.40625h-106.15625c-5.24063,0 -9.40625,4.16563 -9.40625,9.40625v13.4375c0,2.28438 -1.74688,4.03125 -4.03125,4.03125c-2.28437,0 -4.03125,-1.74687 -4.03125,-4.03125v-13.4375c0,-9.675 7.79375,-17.46875 17.46875,-17.46875h106.15625c9.675,0 17.46875,7.79375 17.46875,17.46875v13.4375c0,2.28438 -1.74687,4.03125 -4.03125,4.03125z" fill="#000000"></path><path d="M24.85938,36.28125c-0.26875,0 -0.5375,0 -0.80625,-0.13437c-0.26875,0 -0.5375,-0.13438 -0.80625,-0.26875c-0.26875,-0.13437 -0.40312,-0.26875 -0.67187,-0.40312c-0.26875,-0.13438 -0.40312,-0.26875 -0.67187,-0.5375c-0.26875,-0.26875 -0.40312,-0.40313 -0.5375,-0.67187c-0.13437,-0.26875 -0.26875,-0.40313 -0.40312,-0.67187c-0.13437,-0.26875 -0.13437,-0.5375 -0.26875,-0.80625c-0.13437,-0.26875 -0.13437,-0.5375 -0.13437,-0.80625c0,-1.075 0.40313,-2.15 1.20937,-2.82188c0.13438,-0.13438 0.40313,-0.40312 0.67188,-0.5375c0.26875,-0.13438 0.40313,-0.26875 0.67188,-0.40312c0.26875,-0.13438 0.5375,-0.13438 0.80625,-0.26875c1.34375,-0.26875 2.6875,0.13438 3.62813,1.075c0.80625,0.80625 1.20937,1.74687 1.20937,2.82188c0,0.26875 0,0.5375 -0.13438,0.80625c-0.13438,0.26875 -0.13438,0.5375 -0.26875,0.80625c-0.13438,0.26875 -0.26875,0.5375 -0.40312,0.67188c-0.13438,0.26875 -0.26875,0.40313 -0.5375,0.67188c-0.40312,1.075 -1.47812,1.47812 -2.55312,1.47812zM38.29688,36.28125c-1.075,0 -2.15,-0.40313 -2.82187,-1.20938c-0.80625,-0.80625 -1.20938,-1.74687 -1.20938,-2.82187c0,-1.075 0.40313,-2.15 1.20938,-2.82188c0.13437,-0.13438 0.40312,-0.40312 0.67188,-0.5375c0.26875,-0.13438 0.40312,-0.26875 0.67188,-0.40312c0.26875,-0.13438 0.5375,-0.13438 0.80625,-0.26875c0.5375,-0.13438 1.075,-0.13438 1.6125,0c0.26875,0 0.5375,0.13438 0.80625,0.26875c0.26875,0.13437 0.5375,0.26875 0.67188,0.40312c0.26875,0.13438 0.40312,0.26875 0.67188,0.5375c0.80625,0.80625 1.20937,1.74688 1.20937,2.82188c0,1.075 -0.40312,2.15 -1.20937,2.82187c-0.94063,0.80625 -2.01562,1.20938 -3.09063,1.20938zM51.73438,36.28125c-0.26875,0 -0.5375,0 -0.80625,-0.13437c-0.26875,0 -0.5375,-0.13438 -0.80625,-0.26875c-0.26875,-0.13437 -0.40312,-0.26875 -0.67187,-0.40312c-0.26875,-0.13438 -0.40312,-0.26875 -0.67187,-0.5375c-0.26875,-0.26875 -0.40312,-0.40313 -0.5375,-0.67187c-0.13438,-0.26875 -0.26875,-0.40313 -0.40313,-0.67187c-0.13437,-0.26875 -0.13437,-0.5375 -0.26875,-0.80625c-0.13438,-0.26875 -0.13438,-0.5375 -0.13438,-0.80625c0,-1.075 0.40312,-2.15 1.20938,-2.82188c0.13437,-0.13438 0.40312,-0.40312 0.67188,-0.5375c0.26875,-0.13438 0.40312,-0.26875 0.67188,-0.40312c0.26875,-0.13438 0.5375,-0.13438 0.80625,-0.26875c1.34375,-0.26875 2.6875,0.13438 3.62813,1.075c0.80625,0.80625 1.20938,1.74687 1.20938,2.82188c0,0.26875 0,0.5375 -0.13438,0.80625c-0.13437,0.26875 -0.13437,0.5375 -0.26875,0.80625c-0.13437,0.26875 -0.26875,0.5375 -0.40312,0.67188c-0.13437,0.26875 -0.26875,0.40313 -0.5375,0.67188c-0.40313,1.075 -1.47813,1.47812 -2.55313,1.47812z" fill="#ffffff"></path></g></g></svg>