<svg version="1.1" xmlns="http://www.w3.org/2000/svg" xmlns:xlink="http://www.w3.org/1999/xlink" viewBox="0 0 172 172"><g fill="none" fill-rule="nonzero" stroke="none" stroke-width="1" stroke-linecap="butt" stroke-linejoin="miter" stroke-miterlimit="10" stroke-dasharray="" stroke-dashoffset="0" font-family="none" font-weight="none" font-size="none" text-anchor="none" style="mix-blend-mode: normal"><path d="M0,172v-172h172v172z" fill="none"></path><g id="Layer_1"><path d="M33.73853,33.7417c-28.86168,28.86269 -28.86087,75.65754 0.00182,104.51922c28.86269,28.86168 75.65754,28.86087 104.51922,-0.00182c28.86168,-28.86269 28.86087,-75.65754 -0.00182,-104.51922c-28.86269,-28.86168 -75.65754,-28.86087 -104.51922,0.00182z" fill="#ffffff"></path><path d="M86,163.9375c-20.02187,0 -39.90938,-7.65938 -55.09375,-22.84375c-30.36875,-30.36875 -30.36875,-79.81875 0,-110.1875c30.36875,-30.36875 79.81875,-30.36875 110.1875,0v0c30.36875,30.36875 30.36875,79.81875 0,110.1875c-15.18438,15.18437 -35.07187,22.84375 -55.09375,22.84375zM86,16.125c-17.87188,0 -35.74375,6.85313 -49.45,20.425c-27.14375,27.27813 -27.14375,71.62188 0,98.9c27.27813,27.27813 71.62188,27.27813 98.76563,0c27.27812,-27.27812 27.27812,-71.62187 0,-98.76562c-13.57188,-13.70625 -31.44375,-20.55937 -49.31563,-20.55937z" fill="#000000"></path><path d="M111.53125,81.96875h-21.5v-21.5c0,-2.28438 -1.74688,-4.03125 -4.03125,-4.03125c-2.28437,0 -4.03125,1.74687 -4.03125,4.03125v21.5h-21.5c-2.28438,0 -4.03125,1.74688 -4.03125,4.03125c0,2.28437 1.74687,4.03125 4.03125,4.03125h21.5v21.5c0,2.28437 1.74688,4.03125 4.03125,4.03125c2.28437,0 4.03125,-1.74688 4.03125,-4.03125v-21.5h21.5c2.28437,0 4.03125,-1.74688 4.03125,-4.03125c0,-2.28437 -1.74688,-4.03125 -4.03125,-4.03125z" fill="#3498db"></path></g></g></svg>