<?xml version="1.0" encoding="UTF-8" standalone="no"?>
<svg
   version="1.1"
   viewBox="0 0 172 172"
   id="svg21"
   sodipodi:docname="Agenda.svg"
   inkscape:export-filename="D:\Documentos\Github\VentasPasteleria-TeamD\GUI\src\main\recursos\SVG\Agenda.png"
   inkscape:export-xdpi="111.62791"
   inkscape:export-ydpi="111.62791"
   inkscape:version="1.1.1 (3bf5ae0d25, 2021-09-20)"
   xmlns:inkscape="http://www.inkscape.org/namespaces/inkscape"
   xmlns:sodipodi="http://sodipodi.sourceforge.net/DTD/sodipodi-0.dtd"
   xmlns="http://www.w3.org/2000/svg"
   xmlns:svg="http://www.w3.org/2000/svg">
  <defs
     id="defs25" />
  <sodipodi:namedview
     id="namedview23"
     pagecolor="#ffffff"
     bordercolor="#666666"
     borderopacity="1.0"
     inkscape:pageshadow="2"
     inkscape:pageopacity="0.0"
     inkscape:pagecheckerboard="0"
     showgrid="false"
     inkscape:zoom="3.755814"
     inkscape:cx="86"
     inkscape:cy="86"
     inkscape:window-width="1920"
     inkscape:window-height="1051"
     inkscape:window-x="-9"
     inkscape:window-y="-9"
     inkscape:window-maximized="1"
     inkscape:current-layer="svg21" />
  <g
     fill="none"
     fill-rule="nonzero"
     stroke="none"
     stroke-width="1"
     stroke-linecap="butt"
     stroke-linejoin="miter"
     stroke-miterlimit="10"
     stroke-dasharray=""
     stroke-dashoffset="0"
     font-family="none"
     font-weight="none"
     font-size="none"
     text-anchor="none"
     style="mix-blend-mode: normal"
     id="g19">
    <path
       d="M0,172v-172h172v172z"
       fill="none"
       id="path2" />
    <g
       id="Layer_1">
      <path
         d="M154.53125,18.8125v134.375c0,7.39063 -6.04687,13.4375 -13.4375,13.4375h-102.125c-7.39062,0 -13.4375,-6.04687 -13.4375,-13.4375v-134.375c0,-7.39062 6.04688,-13.4375 13.4375,-13.4375h102.125c7.39063,0 13.4375,6.04688 13.4375,13.4375z"
         fill="#c4d5ae"
         id="path4" />
      <path
         d="M92.71875,36.28125c-7.42133,0 -13.4375,6.01617 -13.4375,13.4375c0,7.42133 6.01617,13.4375 13.4375,13.4375c7.42133,0 13.4375,-6.01617 13.4375,-13.4375c0,-7.42133 -6.01617,-13.4375 -13.4375,-13.4375z"
         fill="#000000"
         id="path6" />
      <path
         d="M92.71875,67.1875c-9.675,0 -17.46875,-7.79375 -17.46875,-17.46875c0,-9.675 7.79375,-17.46875 17.46875,-17.46875c9.675,0 17.46875,7.79375 17.46875,17.46875c0,9.675 -7.79375,17.46875 -17.46875,17.46875zM92.71875,40.3125c-5.24063,0 -9.40625,4.16562 -9.40625,9.40625c0,5.24063 4.16562,9.40625 9.40625,9.40625c5.24063,0 9.40625,-4.16562 9.40625,-9.40625c0,-5.24063 -4.16562,-9.40625 -9.40625,-9.40625z"
         fill="#000000"
         id="path8" />
      <path
         d="M122.28125,123.625h-57.78125c-2.28438,0 -4.03125,-1.74688 -4.03125,-4.03125c0,-2.28437 1.74687,-4.03125 4.03125,-4.03125h57.78125c2.28437,0 4.03125,1.74688 4.03125,4.03125c0,2.28437 -1.74688,4.03125 -4.03125,4.03125zM102.125,103.46875h-37.625c-2.28438,0 -4.03125,-1.74688 -4.03125,-4.03125c0,-2.28437 1.74687,-4.03125 4.03125,-4.03125h37.625c2.28437,0 4.03125,1.74688 4.03125,4.03125c0,2.28437 -1.74688,4.03125 -4.03125,4.03125z"
         fill="#000000"
         id="path10" />
      <path
         d="M141.09375,1.34375h-102.125c-9.675,0 -17.46875,7.79375 -17.46875,17.46875v9.40625h-2.6875c-5.9125,0 -10.75,4.8375 -10.75,10.75c0,5.9125 4.8375,10.75 10.75,10.75h13.4375c5.9125,0 10.75,-4.8375 10.75,-10.75c0,-2.28437 -1.74688,-4.03125 -4.03125,-4.03125c-2.28437,0 -4.03125,1.74688 -4.03125,4.03125c0,1.47812 -1.20938,2.6875 -2.6875,2.6875h-13.4375c-1.47812,0 -2.6875,-1.20938 -2.6875,-2.6875c0,-1.47812 1.20938,-2.6875 2.6875,-2.6875h6.71875c2.28438,0 4.03125,-1.74688 4.03125,-4.03125v-13.4375c0,-5.24062 4.16562,-9.40625 9.40625,-9.40625h102.125c5.24062,0 9.40625,4.16563 9.40625,9.40625v134.375c0,5.24062 -4.16563,9.40625 -9.40625,9.40625h-102.125c-5.24063,0 -9.40625,-4.16563 -9.40625,-9.40625v-9.40625h2.6875c5.9125,0 10.75,-4.8375 10.75,-10.75c0,-2.28438 -1.74688,-4.03125 -4.03125,-4.03125c-2.28437,0 -4.03125,1.74687 -4.03125,4.03125c0,1.47813 -1.20938,2.6875 -2.6875,2.6875h-13.4375c-1.47812,0 -2.6875,-1.20937 -2.6875,-2.6875c0,-1.47813 1.20938,-2.6875 2.6875,-2.6875h6.71875c2.28438,0 4.03125,-1.74687 4.03125,-4.03125v-16.125c0,-2.28437 -1.74687,-4.03125 -4.03125,-4.03125c-2.28438,0 -4.03125,1.74688 -4.03125,4.03125v12.09375h-2.6875c-5.9125,0 -10.75,4.8375 -10.75,10.75c0,5.9125 4.8375,10.75 10.75,10.75h2.6875v9.40625c0,9.675 7.79375,17.46875 17.46875,17.46875h102.125c9.675,0 17.46875,-7.79375 17.46875,-17.46875v-134.375c0,-9.675 -7.79375,-17.46875 -17.46875,-17.46875z"
         fill="#000000"
         id="path12" />
      <path
         d="M18.8125,83.3125h6.71875c2.28438,0 4.03125,-1.74688 4.03125,-4.03125v-16.125c0,-2.28438 -1.74687,-4.03125 -4.03125,-4.03125c-2.28438,0 -4.03125,1.74687 -4.03125,4.03125v12.09375h-2.6875c-5.9125,0 -10.75,4.8375 -10.75,10.75c0,5.9125 4.8375,10.75 10.75,10.75h13.4375c5.9125,0 10.75,-4.8375 10.75,-10.75c0,-2.28437 -1.74688,-4.03125 -4.03125,-4.03125c-2.28437,0 -4.03125,1.74688 -4.03125,4.03125c0,1.47812 -1.20938,2.6875 -2.6875,2.6875h-13.4375c-1.47812,0 -2.6875,-1.20938 -2.6875,-2.6875c0,-1.47812 1.20938,-2.6875 2.6875,-2.6875z"
         fill="#000000"
         id="path14" />
      <path
         d="M122.28125,95.40625c-2.2264,0 -4.03125,1.80485 -4.03125,4.03125c0,2.2264 1.80485,4.03125 4.03125,4.03125c2.2264,0 4.03125,-1.80485 4.03125,-4.03125c0,-2.2264 -1.80485,-4.03125 -4.03125,-4.03125z"
         fill="#000000"
         id="path16" />
    </g>
  </g>
</svg>
