<svg version="1.1" xmlns="http://www.w3.org/2000/svg" xmlns:xlink="http://www.w3.org/1999/xlink" viewBox="0 0 172 172"><g fill="none" fill-rule="nonzero" stroke="none" stroke-width="1" stroke-linecap="butt" stroke-linejoin="miter" stroke-miterlimit="10" stroke-dasharray="" stroke-dashoffset="0" font-family="none" font-weight="none" font-size="none" text-anchor="none" style="mix-blend-mode: normal"><path d="M0,172v-172h172v172z" fill="none"></path><g><path d="M140.825,152.51563c2.82188,-1.6125 3.89688,-5.375 2.15,-8.19688l-51.19688,-88.6875c-1.6125,-2.82188 -5.375,-3.89688 -8.19688,-2.15l-46.89687,27.00937c-2.82188,1.6125 -3.89688,5.375 -2.15,8.19688l42.59688,73.90625h46.35938l17.33437,-10.07812" fill="#ffffff"></path><path d="M44.88125,82.775c-1.6125,-2.82188 -0.67187,-6.58438 2.15,-8.19688l-10.48125,6.04688c-2.82187,1.6125 -3.89687,5.375 -2.15,8.19687l42.73125,73.77188h13.84063l-46.09062,-79.81875" fill="#e2eef6"></path><path d="M40.44688,99.16875l57.37813,-33.05625l33.05625,57.37813l-57.37812,33.05625l-33.05625,-57.37812" fill="#f16677"></path><path d="M51.0625,93.12188h-0.13437l-10.34688,6.04688l33.05625,57.37813l10.48125,-6.04687l-33.05625,-57.37812" fill="#d85c6b"></path><path d="M123.35625,166.625h-46.225c-1.47812,0 -2.82187,-0.80625 -3.49375,-2.01562l-42.73125,-73.77188c-1.34375,-2.28437 -1.74687,-4.97187 -0.94063,-7.65937c0.67188,-2.55313 2.41875,-4.70312 4.70313,-6.04687l46.89687,-27.14375c1.47813,-0.94063 3.225,-1.34375 4.97188,-1.34375c3.62812,0 6.9875,1.88125 8.73438,4.97188l51.19687,88.6875c2.82188,4.8375 1.075,11.01875 -3.62813,13.70625l-17.46875,10.07813c-0.5375,0.40312 -1.20937,0.5375 -2.01562,0.5375zM79.41563,158.5625h42.86562l16.52812,-9.54063c0.94063,-0.5375 1.34375,-1.74687 0.67188,-2.6875l-51.19688,-88.6875c-0.5375,-0.94063 -1.74687,-1.20938 -2.6875,-0.67187l-46.89687,27.00937c-0.67187,0.40313 -0.80625,0.94062 -0.94063,1.20937c-0.13437,0.26875 -0.13437,0.94062 0.13438,1.47813z" fill="#000000"></path><path d="M87.20938,166.625h-41.52188c-2.28438,0 -4.03125,-1.74687 -4.03125,-4.03125c0,-2.28438 1.74687,-4.03125 4.03125,-4.03125h41.52188c2.28437,0 4.03125,1.74687 4.03125,4.03125c0,2.28438 -1.74688,4.03125 -4.03125,4.03125zM32.25,166.625c-1.075,0 -2.15,-0.40312 -2.82188,-1.20937c-0.80625,-0.80625 -1.20937,-1.74688 -1.20937,-2.82188c0,-1.075 0.40312,-2.15 1.20937,-2.82188c1.47813,-1.47812 4.16563,-1.47812 5.64375,0c0.80625,0.80625 1.20937,1.74688 1.20937,2.82188c0,1.075 -0.40312,2.15 -1.20937,2.82188c-0.67187,0.80625 -1.74687,1.20937 -2.82187,1.20937zM18.8125,166.625c-1.075,0 -2.15,-0.40312 -2.82188,-1.20937c-0.80625,-0.80625 -1.20937,-1.74688 -1.20937,-2.82188c0,-1.075 0.40313,-2.15 1.20937,-2.82188c1.47813,-1.47812 4.16563,-1.47812 5.64375,0c0.80625,0.80625 1.20937,1.74688 1.20937,2.82188c0,1.075 -0.40312,2.15 -1.20937,2.82188c-0.67188,0.80625 -1.74688,1.20937 -2.82188,1.20937z" fill="#000000"></path></g></g></svg>