<svg version="1.1" xmlns="http://www.w3.org/2000/svg" xmlns:xlink="http://www.w3.org/1999/xlink" viewBox="0 0 172 172"><g fill="none" fill-rule="nonzero" stroke="none" stroke-width="none" stroke-linecap="none" stroke-linejoin="miter" stroke-miterlimit="10" stroke-dasharray="" stroke-dashoffset="0" font-family="none" font-weight="none" font-size="none" text-anchor="none" style="mix-blend-mode: normal"><path d="M0,172v-172h172v172z" fill="none" stroke="none" stroke-width="1" stroke-linecap="butt"></path><g><path d="M86,21.5c-35.62237,0 -64.5,28.87763 -64.5,64.5c0,35.62237 28.87763,64.5 64.5,64.5c35.62237,0 64.5,-28.87763 64.5,-64.5c0,-35.62237 -28.87763,-64.5 -64.5,-64.5z" fill="#ffffff" stroke="none" stroke-width="1" stroke-linecap="butt"></path><path d="M86,33.59375c-28.94317,0 -52.40625,23.46308 -52.40625,52.40625c0,28.94317 23.46308,52.40625 52.40625,52.40625c28.94317,0 52.40625,-23.46308 52.40625,-52.40625c0,-28.94317 -23.46308,-52.40625 -52.40625,-52.40625z" fill="#e74c3c" stroke="none" stroke-width="1" stroke-linecap="butt"></path><path d="M59.125,112.875l53.75,-53.75M59.125,59.125l53.75,53.75" fill="none" stroke="#ffffff" stroke-width="8.0625" stroke-linecap="round"></path><path d="M86,21.5c-35.62237,0 -64.5,28.87763 -64.5,64.5c0,35.62237 28.87763,64.5 64.5,64.5c35.62237,0 64.5,-28.87763 64.5,-64.5c0,-35.62237 -28.87763,-64.5 -64.5,-64.5z" fill="none" stroke="#000000" stroke-width="8.0625" stroke-linecap="butt"></path></g></g></svg>