<svg version="1.1" xmlns="http://www.w3.org/2000/svg" xmlns:xlink="http://www.w3.org/1999/xlink" viewBox="0 0 172 172"><g fill="none" fill-rule="nonzero" stroke="none" stroke-width="1" stroke-linecap="butt" stroke-linejoin="miter" stroke-miterlimit="10" stroke-dasharray="" stroke-dashoffset="0" font-family="none" font-weight="none" font-size="none" text-anchor="none" style="mix-blend-mode: normal"><path d="M0,172v-172h172v172z" fill="none"></path><g><path d="M59.125,5.375v141.09375l67.1875,-6.71875c7.39063,0 13.4375,-6.04687 13.4375,-13.4375v-120.9375l-13.4375,13.4375l-13.4375,-13.4375l-13.4375,13.4375l-13.4375,-13.4375l-13.4375,13.4375z" fill="#ffffff"></path><path d="M126.3125,22.84375c-1.075,0 -2.01562,-0.40312 -2.82187,-1.20937l-10.61563,-10.61563l-10.61563,10.61563c-1.6125,1.6125 -4.16562,1.6125 -5.64375,0l-13.4375,-13.4375c-1.6125,-1.6125 -1.6125,-4.16563 0,-5.64375c1.6125,-1.6125 4.16562,-1.6125 5.64375,0l10.61563,10.61563l10.61563,-10.61563c1.6125,-1.6125 4.16562,-1.6125 5.64375,0l10.61562,10.61563l10.61562,-10.61563c1.6125,-1.6125 4.16563,-1.6125 5.64375,0c1.6125,1.6125 1.6125,4.16562 0,5.64375l-13.4375,13.4375c-0.80625,0.80625 -1.74688,1.20937 -2.82188,1.20937z" fill="#444b54"></path><path d="M99.4375,32.25h-40.3125v107.5h67.1875v-80.625c0,-14.78125 -12.09375,-26.875 -26.875,-26.875z" fill="#1abc9c"></path><path d="M59.125,48.375c-2.28438,0 -4.03125,-1.74687 -4.03125,-4.03125v-38.96875c0,-2.28438 1.74687,-4.03125 4.03125,-4.03125c2.28438,0 4.03125,1.74687 4.03125,4.03125v38.96875c0,2.28438 -1.74687,4.03125 -4.03125,4.03125z" fill="#444b54"></path><path d="M86,139.75v-80.625c0,-7.39062 6.04688,-13.4375 13.4375,-13.4375v0c7.39063,0 13.4375,6.04688 13.4375,13.4375v67.1875c0,7.39063 6.04688,13.4375 13.4375,13.4375v0c3.7625,0 -40.3125,0 -40.3125,0z" fill="#1abc9c"></path><path d="M126.3125,143.78125c-2.28437,0 -4.03125,-1.74687 -4.03125,-4.03125c0,-2.28438 1.74688,-4.03125 4.03125,-4.03125c5.24062,0 9.40625,-4.16563 9.40625,-9.40625v-120.9375c0,-2.28438 1.74687,-4.03125 4.03125,-4.03125c2.28438,0 4.03125,1.74687 4.03125,4.03125v120.9375c0,9.675 -7.79375,17.46875 -17.46875,17.46875z" fill="#444b54"></path><path d="M126.3125,143.78125h-26.875c-2.28437,0 -4.03125,-1.74687 -4.03125,-4.03125c0,-2.28438 1.74688,-4.03125 4.03125,-4.03125h12.09375c-1.74688,-2.6875 -2.6875,-5.9125 -2.6875,-9.40625v-67.1875c0,-5.24063 -4.16562,-9.40625 -9.40625,-9.40625c-2.28437,0 -4.03125,-1.74687 -4.03125,-4.03125c0,-2.28438 1.74688,-4.03125 4.03125,-4.03125c9.675,0 17.46875,7.79375 17.46875,17.46875v67.1875c0,5.24062 4.16562,9.40625 9.40625,9.40625c2.28438,0 4.03125,1.74687 4.03125,4.03125c0,2.28438 -1.74687,4.03125 -4.03125,4.03125z" fill="#444b54"></path><path d="M86,67.1875h67.1875c7.39063,0 13.4375,6.04688 13.4375,13.4375v59.125c0,7.39063 -6.04687,13.4375 -13.4375,13.4375h-107.5c-7.39062,0 -13.4375,-6.04687 -13.4375,-13.4375l53.75,-72.5625" fill="#6ec6af"></path><path d="M99.4375,130.34375c-11.13163,0 -20.15625,-9.02462 -20.15625,-20.15625c0,-11.13163 9.02462,-20.15625 20.15625,-20.15625c11.13163,0 20.15625,9.02462 20.15625,20.15625c0,11.13163 -9.02462,20.15625 -20.15625,20.15625M153.1875,80.625h-77.14066l-30.35934,40.98438v18.14063h107.5v-59.125" fill="#c5e8df"></path><path d="M99.4375,90.03125c-11.13163,0 -20.15625,9.02462 -20.15625,20.15625c0,11.13163 9.02462,20.15625 20.15625,20.15625c11.13163,0 20.15625,-9.02462 20.15625,-20.15625c0,-11.13163 -9.02462,-20.15625 -20.15625,-20.15625" fill="#eef8f5"></path><path d="M153.1875,157.21875h-107.5c-9.675,0 -17.46875,-7.79375 -17.46875,-17.46875c0,-2.28438 1.74687,-4.03125 4.03125,-4.03125c2.28437,0 4.03125,1.74687 4.03125,4.03125c0,5.24062 4.16562,9.40625 9.40625,9.40625h107.5c5.24062,0 9.40625,-4.16563 9.40625,-9.40625v-59.125c0,-5.24062 -4.16563,-9.40625 -9.40625,-9.40625h-53.75c-2.28437,0 -4.03125,-1.74688 -4.03125,-4.03125c0,-2.28437 1.74688,-4.03125 4.03125,-4.03125h53.75c9.675,0 17.46875,7.79375 17.46875,17.46875v59.125c0,9.675 -7.79375,17.46875 -17.46875,17.46875z" fill="#444b54"></path><path d="M5.375,153.1875v-94.0625c0,-7.39062 6.04688,-13.4375 13.4375,-13.4375h80.625v0c-7.39062,0 -13.4375,6.04688 -13.4375,13.4375v94.0625l-13.4375,13.4375l-13.4375,-13.4375l-13.4375,13.4375l-13.4375,-13.4375l-13.4375,13.4375z" fill="#ffffff"></path><path d="M50.79375,97.825l-8.33125,-2.01562c-2.55313,-0.67187 -4.16563,-2.82188 -4.16563,-5.375c0,-3.09063 2.55313,-5.64375 5.64375,-5.64375h4.03125c2.82187,0 5.10625,2.28438 5.10625,5.10625c0,2.28437 1.74687,4.03125 4.03125,4.03125c2.28438,0 4.03125,-1.74688 4.03125,-4.03125c0,-6.71875 -4.97188,-12.22813 -11.42187,-13.03438v-1.74687c0,-2.28438 -1.74687,-4.03125 -4.03125,-4.03125c-2.28438,0 -4.03125,1.74687 -4.03125,4.03125v1.88125c-6.45,1.075 -11.42188,6.71875 -11.42188,13.4375c0,6.31563 4.3,11.69063 10.34688,13.30313l8.33125,2.01563c2.55313,0.67188 4.16563,2.82187 4.16563,5.375c0,3.09063 -2.55313,5.64375 -5.64375,5.64375h-4.03125c-2.82188,0 -5.10625,-2.28438 -5.10625,-5.10625c0,-2.28437 -1.74688,-4.03125 -4.03125,-4.03125c-2.28438,0 -4.03125,1.74688 -4.03125,4.03125c0,6.71875 4.97187,12.22812 11.42188,13.03438v1.74687c0,2.28437 1.74688,4.03125 4.03125,4.03125c2.28437,0 4.03125,-1.74688 4.03125,-4.03125v-1.88125c6.45,-1.075 11.42188,-6.71875 11.42188,-13.4375c0,-6.31562 -4.3,-11.69062 -10.34687,-13.30312z" fill="#1abc9c"></path><path d="M72.5625,170.65625c-1.075,0 -2.01562,-0.40312 -2.82188,-1.20937l-10.61562,-10.61563l-10.61563,10.61563c-1.6125,1.6125 -4.16562,1.6125 -5.64375,0l-10.61563,-10.61563l-10.61562,10.61563c-1.6125,1.6125 -4.16562,1.6125 -5.64375,0c-1.6125,-1.6125 -1.6125,-4.16563 0,-5.64375l13.4375,-13.4375c1.6125,-1.6125 4.16563,-1.6125 5.64375,0l10.61563,10.61562l10.61563,-10.61562c1.6125,-1.6125 4.16562,-1.6125 5.64375,0l10.61563,10.61562l9.40625,-9.40625v-92.45c0,-3.49375 1.075,-6.71875 2.6875,-9.40625h-65.84375c-5.24062,0 -9.40625,4.16562 -9.40625,9.40625v94.0625c0,2.28438 -1.74688,4.03125 -4.03125,4.03125c-2.28438,0 -4.03125,-1.74687 -4.03125,-4.03125v-94.0625c0,-9.675 7.79375,-17.46875 17.46875,-17.46875h80.625c2.28437,0 4.03125,1.74687 4.03125,4.03125c0,2.28438 -1.74688,4.03125 -4.03125,4.03125c-5.24063,0 -9.40625,4.16562 -9.40625,9.40625v94.0625c0,1.075 -0.40313,2.15 -1.20938,2.82188l-13.4375,13.4375c-0.80625,0.80625 -1.74687,1.20937 -2.82187,1.20937z" fill="#444b54"></path></g></g></svg>