<svg version="1.1" xmlns="http://www.w3.org/2000/svg" xmlns:xlink="http://www.w3.org/1999/xlink" viewBox="0 0 172 172"><g fill="none" fill-rule="nonzero" stroke="none" stroke-width="1" stroke-linecap="butt" stroke-linejoin="miter" stroke-miterlimit="10" stroke-dasharray="" stroke-dashoffset="0" font-family="none" font-weight="none" font-size="none" text-anchor="none" style="mix-blend-mode: normal"><path d="M0,172v-172h172v172z" fill="none"></path><g><path d="M135.71875,34.9375c-1.075,-9.00313 -22.84375,-16.125 -49.71875,-16.125c-26.875,0 -48.64375,7.12187 -49.71875,16.125v0v80.625v0c0,0.26875 0,0.40313 0,0.67188c0,9.27188 22.30625,16.79688 49.71875,16.79688c27.4125,0 49.71875,-7.525 49.71875,-16.79687c0,-0.26875 0,-0.40313 0,-0.67187v0v-80.625z" fill="#ffffff"></path><path d="M135.71875,39.64063c-2.28438,0 -4.03125,-1.74688 -4.03125,-4.03125c0,-4.3 -16.125,-12.76562 -45.6875,-12.76562c-29.5625,0 -45.6875,8.46562 -45.6875,12.76563c0,2.28437 -1.74688,4.03125 -4.03125,4.03125c-2.28437,0 -4.03125,-1.74688 -4.03125,-4.03125c0,-13.70625 27.00938,-20.82812 53.75,-20.82812c26.74063,0 53.75,7.12187 53.75,20.82813c0,2.28437 -1.74687,4.03125 -4.03125,4.03125z" fill="#000000"></path><path d="M139.61563,33.8625c-2.28437,-12.49687 -28.08437,-19.08125 -53.61562,-19.08125c-26.74062,0 -53.75,7.12187 -53.75,20.82813c0,13.70625 27.00938,20.82813 53.75,20.82813c17.7375,0 35.74375,-3.225 45.6875,-9.27188v15.31875c0,4.3 -16.125,12.76563 -45.6875,12.76563c-29.5625,0 -45.6875,-8.46563 -45.6875,-12.76562c0,-2.28438 -1.74688,-4.03125 -4.03125,-4.03125c-2.28437,0 -4.03125,1.74687 -4.03125,4.03125v53.75c0,13.70625 27.00938,20.82813 53.75,20.82813c3.7625,0 7.525,-0.13438 11.15313,-0.40312c2.28437,-0.13438 3.89687,-2.15 3.7625,-4.3c-0.13437,-2.28438 -2.15,-3.89687 -4.3,-3.7625c-3.49375,0.26875 -6.9875,0.40312 -10.61562,0.40312c-29.5625,0 -45.6875,-8.46563 -45.6875,-12.76562v-15.31875c9.94375,6.18125 27.95,9.27188 45.6875,9.27188c26.74063,0 53.75,-7.12188 53.75,-20.82812v-54.42187c0,-0.40313 -0.13438,-0.80625 -0.13438,-1.075zM86,48.375c-29.5625,0 -45.6875,-8.46563 -45.6875,-12.76562c0,-4.3 16.125,-12.76562 45.6875,-12.76562c29.5625,0 45.6875,8.46562 45.6875,12.76563c0,4.3 -16.125,12.76563 -45.6875,12.76563zM86,102.125c-29.5625,0 -45.6875,-8.46563 -45.6875,-12.76562v-15.31875c9.94375,6.18125 27.95,9.27187 45.6875,9.27187c17.7375,0 35.74375,-3.225 45.6875,-9.27187v15.31875c0,4.3 -16.125,12.76563 -45.6875,12.76563z" fill="#000000"></path><path d="M116.77188,156.00938c-10.48125,-10.48125 -10.48125,-27.54687 0,-38.02813c10.2125,-10.2125 26.60625,-10.48125 37.22187,-0.80625c0.26875,0.26875 -0.94063,3.35938 -0.67187,3.62813c1.075,1.075 3.49375,2.28437 4.3,2.6875c0.40312,0.13437 -0.67187,1.34375 -0.26875,1.34375c0.13438,0 1.6125,-1.6125 1.74687,-1.34375c5.9125,10.2125 4.43438,23.65 -4.3,32.38437c-10.61563,10.75 -27.54688,10.75 -38.02813,0.13438z" fill="#1fd4af"></path><g fill="#ffffff"><path d="M129.5375,129.26875c-1.34375,-1.74688 -3.89687,-2.01563 -5.64375,-0.67187c-1.74687,1.34375 -2.01562,3.89687 -0.67187,5.64375l9.40625,12.09375c0.67188,0.94063 1.88125,1.47813 3.09062,1.6125h0.13438c1.20937,0 2.28437,-0.5375 2.95625,-1.34375l20.29063,-22.84375c-1.34375,-2.41875 -3.09062,-4.56875 -5.10625,-6.31562l-18.00625,20.15625z"></path></g></g></g></svg>