<?xml version="1.0" encoding="UTF-8" standalone="no"?>
<svg
   version="1.1"
   viewBox="0 0 172 172"
   id="svg29"
   sodipodi:docname="Datos.svg"
   inkscape:export-filename="D:\Documentos\Github\VentasPasteleria-TeamD\GUI\src\main\recursos\SVG\Datos.png"
   inkscape:export-xdpi="111.62791"
   inkscape:export-ydpi="111.62791"
   inkscape:version="1.1.1 (3bf5ae0d25, 2021-09-20)"
   xmlns:inkscape="http://www.inkscape.org/namespaces/inkscape"
   xmlns:sodipodi="http://sodipodi.sourceforge.net/DTD/sodipodi-0.dtd"
   xmlns="http://www.w3.org/2000/svg"
   xmlns:svg="http://www.w3.org/2000/svg">
  <defs
     id="defs33" />
  <sodipodi:namedview
     id="namedview31"
     pagecolor="#ffffff"
     bordercolor="#666666"
     borderopacity="1.0"
     inkscape:pageshadow="2"
     inkscape:pageopacity="0.0"
     inkscape:pagecheckerboard="0"
     showgrid="false"
     inkscape:zoom="3.755814"
     inkscape:cx="86"
     inkscape:cy="86"
     inkscape:window-width="1920"
     inkscape:window-height="1051"
     inkscape:window-x="-9"
     inkscape:window-y="-9"
     inkscape:window-maximized="1"
     inkscape:current-layer="svg29" />
  <g
     fill="none"
     fill-rule="nonzero"
     stroke="none"
     stroke-width="1"
     stroke-linecap="butt"
     stroke-linejoin="miter"
     stroke-miterlimit="10"
     stroke-dasharray=""
     stroke-dashoffset="0"
     font-family="none"
     font-weight="none"
     font-size="none"
     text-anchor="none"
     style="mix-blend-mode: normal"
     id="g27">
    <path
       d="M0,172v-172h172v172z"
       fill="none"
       id="path2" />
    <g
       id="Layer_1">
      <path
         d="M80.49062,57.64688l14.5125,-39.90937c2.55313,-6.9875 10.2125,-10.61563 17.2,-8.0625l41.65625,15.18438c6.9875,2.55312 10.61562,10.2125 8.0625,17.2l-14.64687,39.90937c-2.41875,6.9875 -66.78438,-24.32187 -66.78438,-24.32187z"
         fill="#9b59b6"
         id="path4" />
      <path
         d="M80.49062,57.64688l-30.90625,85.05937l54.2875,19.75313c6.45,2.41875 13.57187,-0.5375 16.6625,-6.58438l26.875,-73.90625z"
         fill="#ffffff"
         id="path6" />
      <path
         d="M108.44063,167.29688c-2.01562,0 -4.03125,-0.40312 -6.04687,-1.075l-12.3625,-4.56875c-2.15,-0.80625 -3.225,-3.09062 -2.41875,-5.10625c0.80625,-2.15 3.09063,-3.225 5.10625,-2.41875l12.3625,4.56875c2.41875,0.80625 4.97188,0.80625 7.25625,-0.26875c2.28438,-1.075 4.03125,-2.95625 4.8375,-5.375l23.1125,-63.425c0.80625,-2.15 3.09063,-3.225 5.10625,-2.41875c2.15,0.80625 3.225,3.09062 2.41875,5.10625l-23.1125,63.425c-1.6125,4.43438 -4.8375,7.92813 -9.00313,9.80938c-2.28437,1.20937 -4.70312,1.74687 -7.25625,1.74687z"
         fill="#000000"
         id="path8" />
      <path
         d="M148.8875,81.96875c-0.40312,0 -0.94062,-0.13438 -1.34375,-0.26875c-2.15,-0.80625 -3.225,-3.09063 -2.41875,-5.10625l13.03438,-36.0125c1.74687,-4.8375 -0.80625,-10.34687 -5.64375,-12.09375l-41.65625,-15.05c-3.49375,-1.34375 -7.525,-0.40313 -10.07812,2.41875c-1.47812,1.6125 -4.03125,1.74688 -5.64375,0.26875c-1.6125,-1.47813 -1.74688,-4.03125 -0.26875,-5.64375c4.8375,-5.10625 12.09375,-6.9875 18.8125,-4.56875l41.65625,15.18438c9.00312,3.35938 13.70625,13.30312 10.48125,22.44063l-13.03438,36.0125c-0.67187,1.47813 -2.28437,2.41875 -3.89687,2.41875z"
         fill="#000000"
         id="path10" />
      <g
         id="g20">
        <path
           d="M96.75,146.46875h-84.65625v-120.9375h84.65625c7.39063,0 13.4375,6.04688 13.4375,13.4375v94.0625c0,7.39063 -6.04687,13.4375 -13.4375,13.4375z"
           fill="#ffffff"
           id="path12" />
        <path
           d="M96.75,146.46875h-84.65625v-120.9375h84.65625c7.39063,0 13.4375,6.04688 13.4375,13.4375v94.0625c0,7.39063 -6.04687,13.4375 -13.4375,13.4375z"
           fill="#ffffff"
           id="path14" />
        <path
           d="M96.75,150.5h-84.65625c-2.28438,0 -4.03125,-1.74687 -4.03125,-4.03125v-120.9375c0,-2.28438 1.74687,-4.03125 4.03125,-4.03125h84.65625c9.675,0 17.46875,7.79375 17.46875,17.46875v94.0625c0,9.675 -7.79375,17.46875 -17.46875,17.46875zM16.125,142.4375h80.625c5.24063,0 9.40625,-4.16563 9.40625,-9.40625v-94.0625c0,-5.24063 -4.16562,-9.40625 -9.40625,-9.40625h-80.625z"
           fill="#000000"
           id="path16" />
        <path
           d="M77.26563,116.90625h-32.25c-2.28437,0 -4.03125,-1.74688 -4.03125,-4.03125c0,-2.28437 1.74688,-4.03125 4.03125,-4.03125h32.25c2.28437,0 4.03125,1.74688 4.03125,4.03125c0,2.28437 -1.74688,4.03125 -4.03125,4.03125z"
           fill="#9b59b6"
           id="path18" />
      </g>
      <g
         fill="#9b59b6"
         id="g24">
        <circle
           cx="45.5"
           cy="59.5"
           transform="scale(1.34375,1.34375)"
           r="15"
           id="circle22" />
      </g>
    </g>
  </g>
</svg>
