<svg version="1.1" xmlns="http://www.w3.org/2000/svg" xmlns:xlink="http://www.w3.org/1999/xlink" viewBox="0 0 172 172"><g fill="none" fill-rule="nonzero" stroke="none" stroke-width="1" stroke-linecap="butt" stroke-linejoin="miter" stroke-miterlimit="10" stroke-dasharray="" stroke-dashoffset="0" font-family="none" font-weight="none" font-size="none" text-anchor="none" style="mix-blend-mode: normal"><path d="M0,172v-172h172v172z" fill="none"></path><g id="Layer_1"><path d="M153.34875,77.26563l-38.79406,-67.1875c-3.14438,-5.46906 -8.80156,-8.73437 -15.11719,-8.73437c-6.31562,0 -11.97281,3.26531 -15.13062,8.73438l-38.79406,67.1875c-3.15781,5.46906 -3.15781,11.99969 0,17.46875c3.15781,5.46906 8.815,8.73438 15.13062,8.73438h77.57469c6.31563,0 11.97281,-3.26531 15.13063,-8.73437c3.15781,-5.46906 3.17125,-11.99969 0,-17.46875z" fill="#f1c40f"></path><path d="M99.4375,87.34375c-2.23062,0 -4.03125,-1.80063 -4.03125,-4.03125v-4.03125c0,-2.23062 1.80063,-4.03125 4.03125,-4.03125c2.23062,0 4.03125,1.80063 4.03125,4.03125v4.03125c0,2.23062 -1.80063,4.03125 -4.03125,4.03125z" fill="#ffffff"></path><path d="M99.4375,63.15625c-2.23062,0 -4.03125,-1.80063 -4.03125,-4.03125v-29.5625c0,-2.23062 1.80063,-4.03125 4.03125,-4.03125c2.23062,0 4.03125,1.80063 4.03125,4.03125v29.5625c0,2.23062 -1.80063,4.03125 -4.03125,4.03125z" fill="#ffffff"></path><g><path d="M165.12,118.15594c-2.45906,-5.34813 -8.94938,-7.525 -14.36469,-5.21375l-6.11406,2.48594l-2.23063,-5.02562c-2.32469,-5.45563 -8.62688,-8.00875 -14.0825,-5.68406l-27.78875,12.12062c-0.645,-0.49719 -1.35719,-0.95406 -2.13656,-1.30344l-34.78969,-15.50688c-13.46437,-5.99312 -29.1325,-4.16562 -40.85,4.77031l-18.10031,17.9525l0.71219,35.81094l18.8125,-13.4375l37.38313,18.82594c6.97406,3.39969 15.09031,3.62813 22.2525,0.60469l75.72031,-32.02156c5.56313,-2.35156 8.11625,-8.85531 5.57656,-14.37812z" fill="#ffffff"></path><path d="M94.0625,140.11281c-2.0425,0 -4.09844,-0.43 -6.06031,-1.30344l-23.19313,-10.37375c-2.02906,-0.91375 -2.94281,-3.29219 -2.02906,-5.32125v0c0.91375,-2.02906 3.29219,-2.94281 5.32125,-2.02906l22.99156,10.27969c1.45125,0.645 3.10406,0.87344 4.63594,0.45687c2.05594,-0.55094 3.61469,-1.935 4.43438,-3.7625c0.91375,-2.05594 0.73906,-4.42094 -0.47031,-6.3425c-0.71219,-1.11531 -1.72,-1.98875 -2.92938,-2.52625l-32.51875,-14.45875c-12.69844,-5.65719 -28.03062,-5.2675 -39.00906,3.26531c-1.92156,1.49156 -4.77031,0.9675 -6.00656,-1.23625c-1.00781,-1.80062 -0.36281,-4.07156 1.29,-5.30781c12.87312,-9.70188 29.97906,-11.66375 44.72,-5.09281l34.62844,15.41281c1.505,0.67188 2.92938,1.54531 4.13875,2.67406c4.78375,4.47469 6.03344,11.22031 3.49375,16.90437c-0.60469,1.37062 -1.42437,2.63375 -2.40531,3.74906c-2.86219,3.26531 -6.89344,5.01219 -11.03219,5.01219z" fill="#000000"></path><path d="M168.78844,116.46281c-3.30562,-7.18906 -12.09375,-10.44094 -19.61875,-7.24281l-2.41875,1.02125l-0.645,-1.43781c-1.54531,-3.62812 -4.4075,-6.45 -8.0625,-7.92813c-3.655,-1.47812 -7.67281,-1.43781 -11.34125,0.1075l-9.62125,4.1925c-2.0425,0.88687 -2.96969,3.26531 -2.08281,5.30781c0.88688,2.0425 3.26531,2.96969 5.30781,2.08281l9.58094,-4.17906c1.65281,-0.69875 3.46688,-0.71219 5.13313,-0.04031c1.66625,0.67188 2.96969,1.94844 3.68187,3.655l0.61812,1.3975l-17.71062,7.53844c-2.0425,0.87344 -2.99656,3.23844 -2.12313,5.29438c0.87344,2.05594 3.25188,2.99656 5.28094,2.12313l27.54688,-11.73094c3.53406,-1.505 7.6325,-0.06719 9.1375,3.19812c0.76594,1.66625 0.81969,3.53406 0.16125,5.24063c-0.65844,1.70656 -1.96187,3.03688 -3.64156,3.74906l-75.72031,32.035c-6.08719,2.56656 -12.98063,2.37844 -18.86625,-0.48375l-37.38313,-18.82594c-1.34375,-0.67187 -2.94281,-0.55094 -4.15219,0.3225l-18.8125,13.4375c-1.81406,1.29 -2.23062,3.81625 -0.94062,5.63031c1.29,1.81406 3.80281,2.23063 5.63031,0.94063l16.83719,-12.02656l35.26,17.75094c4.27313,2.08281 8.90906,3.13094 13.545,3.13094c4.085,0 8.18344,-0.80625 12.02656,-2.44562l75.72031,-32.02156c3.70875,-1.57219 6.5575,-4.50156 8.02219,-8.26406c1.45125,-3.7625 1.33031,-7.8475 -0.34938,-11.52938z" fill="#000000"></path></g></g></g></svg>