<svg version="1.1" xmlns="http://www.w3.org/2000/svg" xmlns:xlink="http://www.w3.org/1999/xlink" viewBox="0 0 172 172"><g fill="none" fill-rule="nonzero" stroke="none" stroke-width="1" stroke-linecap="butt" stroke-linejoin="miter" stroke-miterlimit="10" stroke-dasharray="" stroke-dashoffset="0" font-family="none" font-weight="none" font-size="none" text-anchor="none" style="mix-blend-mode: normal"><path d="M0,172v-172h172v172z" fill="none"></path><g><path d="M146.46875,146.46875l-26.875,-13.4375l-26.875,13.4375h-67.1875v-107.5h67.1875l26.875,-13.4375l26.875,13.4375v107.5" fill="#88a0ba"></path><path d="M119.59375,25.53125l-26.875,13.4375v107.5l26.875,-13.4375v-107.5" fill="#6f8399"></path><path d="M146.46875,150.5c-0.67187,0 -1.20937,-0.13438 -1.74687,-0.40312l-25.12813,-12.49688l-25.12812,12.49688c-0.5375,0.26875 -1.20938,0.40312 -1.74688,0.40312h-67.1875c-2.28438,0 -4.03125,-1.74687 -4.03125,-4.03125v-107.5c0,-2.28437 1.74687,-4.03125 4.03125,-4.03125h66.24688l26.06875,-13.03437c1.075,-0.5375 2.41875,-0.5375 3.62813,0l26.875,13.4375c1.34375,0.67188 2.28303,2.01563 2.28303,3.62812v107.5c0,1.34375 -0.67187,2.6875 -1.87991,3.49375c-0.80625,0.26875 -1.6125,0.5375 -2.28437,0.5375zM29.5625,142.4375h62.21563l26.06875,-13.03438c1.075,-0.53616 2.41875,-0.53616 3.62813,0l21.09553,10.48125v-98.3625l-22.84375,-11.42188l-25.12678,12.49688c-0.67187,0.26875 -1.20938,0.40313 -1.88125,0.40313h-63.15625z" fill="#454b54"></path><path d="M119.59375,83.3125c-2.28437,0 -4.03125,-1.74688 -4.03125,-4.03125v-53.75c0,-2.28438 1.74688,-4.03125 4.03125,-4.03125c2.28437,0 4.03125,1.74687 4.03125,4.03125v53.75c0,2.28437 -1.74688,4.03125 -4.03125,4.03125z" fill="#454b54"></path><path d="M70.95,61.67813c-1.6125,-1.6125 -4.16563,-1.6125 -5.64375,0l-3.7625,3.7625l-3.7625,-3.7625c-1.6125,-1.6125 -4.16562,-1.6125 -5.64375,0c-1.6125,1.6125 -1.6125,4.16562 0,5.64375l3.7625,3.7625l-3.7625,3.7625c-1.6125,1.6125 -1.6125,4.16563 0,5.64375c0.80625,0.80625 1.88125,1.20938 2.82188,1.20938c0.94062,0 2.01563,-0.40313 2.82187,-1.20938l3.7625,-3.7625l3.7625,3.7625c0.80625,0.80625 1.88125,1.20938 2.82188,1.20938c0.94062,0 2.01563,-0.40313 2.82188,-1.20938c1.6125,-1.6125 1.6125,-4.16562 0,-5.64375l-3.7625,-3.62812l3.7625,-3.7625c1.6125,-1.6125 1.6125,-4.16562 0,-5.77812zM68.39687,117.57813c-0.26875,-0.13437 -0.67187,-0.13437 -0.94062,-0.26875c-2.15,-0.67187 -4.43437,0.40312 -5.10625,2.41875c-0.67187,2.15 0.40312,4.43438 2.41875,5.10625c0.5375,0.13437 1.075,0.40312 1.6125,0.53616c0.40313,0.13572 0.67188,0.13572 1.075,0.13572c1.74687,0 3.49375,-1.20938 3.89687,-2.95625c0.5375,-2.15 -0.80625,-4.43437 -2.95625,-4.97187zM59.79688,107.63438c-0.26875,-2.15 -2.28438,-3.7625 -4.43437,-3.49375c-2.15,0.26875 -3.7625,2.28437 -3.49375,4.43438c0.13438,0.5375 0.13438,1.075 0.26875,1.6125c0.40312,1.88125 2.01563,3.225 3.89688,3.225c0.26875,0 0.5375,0 0.80625,-0.13572c2.15,-0.40313 3.62813,-2.55178 3.09062,-4.8375c0,-0.13303 -0.13437,-0.40178 -0.13437,-0.80491zM64.36562,95.27188l0.67188,-1.20938c1.075,-1.88125 0.40313,-4.43438 -1.47812,-5.50937c-1.88125,-1.075 -4.43437,-0.40313 -5.50937,1.47812l-0.67187,1.20938c-1.075,1.87991 -0.40312,4.43437 1.47812,5.50937c0.67188,0.40313 1.34375,0.5375 2.01563,0.5375c1.34375,0 2.6875,-0.80625 3.49375,-2.01562zM128.05937,107.5l-0.80625,-1.075c-1.34375,-1.74687 -3.89687,-2.01562 -5.64375,-0.67187c-1.74688,1.34375 -2.01562,3.89687 -0.67187,5.64375l0.80625,1.075c0.80759,0.94063 2.01563,1.47813 3.225,1.47813c0.94062,0 1.74688,-0.26875 2.55313,-0.80625c1.6125,-1.34375 1.88125,-3.89687 0.5375,-5.64375zM110.32188,105.35l-0.94062,0.94062c-1.6125,1.47947 -1.74822,4.03125 -0.26875,5.64375c0.80625,0.80759 1.87991,1.34375 2.95625,1.34375c0.93928,0 1.87991,-0.40313 2.6875,-1.075l0.93928,-0.94062c1.6125,-1.47812 1.74822,-4.03125 0.26875,-5.64375c-1.34241,-1.6125 -3.89553,-1.74688 -5.64241,-0.26875zM97.42188,117.175l-0.94062,0.94063c-1.6125,1.47812 -1.74688,4.03125 -0.26875,5.64241c0.80759,0.80759 1.88125,1.34375 2.95625,1.34375c0.94062,0 1.88125,-0.40312 2.6875,-1.075l0.94062,-0.94063c1.6125,-1.47812 1.74688,-4.03125 0.26875,-5.64241c-1.34375,-1.74688 -3.89687,-1.88125 -5.64375,-0.26875zM85.19375,119.8625l-1.34375,-0.13572c-2.15,-0.26741 -4.16562,1.34375 -4.56875,3.49509c-0.26875,2.15 1.34375,4.16563 3.49375,4.56741l1.34375,0.13572c0.13437,0 0.40312,0 0.5375,0c2.01563,0 3.7625,-1.47947 4.03125,-3.49509c0.26875,-2.28303 -1.20938,-4.29866 -3.49375,-4.56741z" fill="#ffffff"></path></g></g></svg>