<svg version="1.1" xmlns="http://www.w3.org/2000/svg" xmlns:xlink="http://www.w3.org/1999/xlink" viewBox="0 0 172 172"><g fill="none" fill-rule="nonzero" stroke="none" stroke-width="1" stroke-linecap="butt" stroke-linejoin="miter" stroke-miterlimit="10" stroke-dasharray="" stroke-dashoffset="0" font-family="none" font-weight="none" font-size="none" text-anchor="none" style="mix-blend-mode: normal"><path d="M0,172v-172h172v172z" fill="none"></path><g><path d="M56.16875,29.69688v-5.375c0,-6.85312 5.50938,-12.3625 12.3625,-12.3625h56.4375c3.225,0 6.45,1.34375 8.73438,3.62812l17.46875,17.46875c2.28438,2.28438 3.62813,5.50938 3.62813,8.73438v87.34375c0,6.85312 -5.50938,12.3625 -12.3625,12.3625h-30.36875l-55.9,-111.8" fill="#f2e5ac"></path><path d="M80.625,18.275h-22.84375c-0.40312,0.67188 -0.67187,1.20938 -0.94063,2.01563c-0.13437,0.26875 -0.13437,0.5375 -0.26875,0.80625c-0.26875,1.075 -0.40312,2.15 -0.40312,3.35938v5.24062l55.9,111.8h10.61563v-81.1625c0,-6.58438 -2.55313,-12.76562 -7.25625,-17.46875l-17.33438,-17.33438c-4.70312,-4.70312 -10.88437,-7.25625 -17.46875,-7.25625" fill="#d9ce9a"></path><path d="M142.4375,145.52812h-30.36875c-2.28438,0 -4.03125,-1.74687 -4.03125,-4.03125c0,-2.28437 1.74687,-4.03125 4.03125,-4.03125h30.36875c4.56875,0 8.33125,-3.7625 8.33125,-8.33125v-87.34375c0,-2.15 -0.80625,-4.3 -2.41875,-5.9125l-17.46875,-17.46875c-1.6125,-1.47812 -3.62812,-2.28437 -5.9125,-2.28437h-56.4375c-4.56875,0 -8.33125,3.7625 -8.33125,8.33125v5.375c0,2.28438 -1.74687,4.03125 -4.03125,4.03125c-2.28438,0 -4.03125,-1.74687 -4.03125,-4.03125v-5.375c0,-9.00313 7.39063,-16.39375 16.39375,-16.39375h56.4375c4.3,0 8.46562,1.74687 11.55625,4.8375l17.46875,17.46875c3.09062,3.09062 4.8375,7.25625 4.8375,11.55625v87.34375c0,8.86875 -7.39062,16.25937 -16.39375,16.25937z" fill="#454b54"></path><path d="M98.09375,159.90625h-73.90625c-6.85312,0 -12.3625,-5.50938 -12.3625,-12.3625v-104.67812c0,-6.85313 5.50938,-12.3625 12.3625,-12.3625h56.4375c3.225,0 6.45,1.34375 8.73438,3.62813l17.46875,17.46875c2.28437,2.28437 3.62812,5.50937 3.62812,8.73438v87.34375c0,6.71875 -5.50938,12.22813 -12.3625,12.22813z" fill="#ffffff"></path><path d="M98.09375,163.9375h-73.90625c-9.00312,0 -16.39375,-7.39062 -16.39375,-16.39375v-104.67812c0,-9.00313 7.39063,-16.39375 16.39375,-16.39375h56.4375c4.3,0 8.46563,1.74687 11.55625,4.8375l17.46875,17.46875c3.09063,3.09062 4.8375,7.25625 4.8375,11.55625v87.34375c0,8.86875 -7.39062,16.25938 -16.39375,16.25938zM24.1875,34.66875c-4.56875,0 -8.33125,3.7625 -8.33125,8.33125v104.67813c0,4.56875 3.7625,8.33125 8.33125,8.33125h73.90625c4.56875,0 8.33125,-3.7625 8.33125,-8.33125v-87.34375c0,-2.15 -0.80625,-4.3 -2.41875,-5.9125l-17.46875,-17.46875c-1.6125,-1.6125 -3.62813,-2.41875 -5.9125,-2.41875l-56.4375,0.13437z" fill="#454b54"></path><path d="M85.73125,139.34688h-49.18125c-2.28437,0 -4.03125,-1.74688 -4.03125,-4.03125c0,-2.28438 1.74688,-4.03125 4.03125,-4.03125h49.31563c2.28437,0 4.03125,1.74687 4.03125,4.03125c0,2.28437 -1.88125,4.03125 -4.16563,4.03125zM85.73125,120.80313h-49.18125c-2.28437,0 -4.03125,-1.74688 -4.03125,-4.03125c0,-2.28438 1.74688,-4.03125 4.03125,-4.03125h49.31563c2.28437,0 4.03125,1.74687 4.03125,4.03125c0,2.28437 -1.88125,4.03125 -4.16563,4.03125zM85.73125,102.39375h-49.18125c-2.28437,0 -4.03125,-1.74687 -4.03125,-4.03125c0,-2.28437 1.74688,-4.03125 4.03125,-4.03125h49.31563c2.28437,0 4.03125,1.74688 4.03125,4.03125c0,2.28438 -1.88125,4.03125 -4.16563,4.03125z" fill="#454b54"></path></g></g></svg>