<?xml version="1.0" encoding="UTF-8" standalone="no"?>
<svg
   version="1.1"
   viewBox="0 0 172 172"
   id="svg25"
   sodipodi:docname="Switch.svg"
   inkscape:export-filename="D:\Documentos\Github\VentasPasteleria-TeamD\GUI\src\main\recursos\SVG\Switch.png"
   inkscape:export-xdpi="16.744186"
   inkscape:export-ydpi="16.744186"
   inkscape:version="1.1.1 (3bf5ae0d25, 2021-09-20)"
   xmlns:inkscape="http://www.inkscape.org/namespaces/inkscape"
   xmlns:sodipodi="http://sodipodi.sourceforge.net/DTD/sodipodi-0.dtd"
   xmlns="http://www.w3.org/2000/svg"
   xmlns:svg="http://www.w3.org/2000/svg">
  <defs
     id="defs29" />
  <sodipodi:namedview
     id="namedview27"
     pagecolor="#ffffff"
     bordercolor="#666666"
     borderopacity="1.0"
     inkscape:pageshadow="2"
     inkscape:pageopacity="0.0"
     inkscape:pagecheckerboard="0"
     showgrid="false"
     inkscape:zoom="3.755814"
     inkscape:cx="86"
     inkscape:cy="86"
     inkscape:window-width="1920"
     inkscape:window-height="1051"
     inkscape:window-x="-9"
     inkscape:window-y="-9"
     inkscape:window-maximized="1"
     inkscape:current-layer="svg25" />
  <g
     fill="none"
     fill-rule="nonzero"
     stroke="none"
     stroke-width="1"
     stroke-linecap="butt"
     stroke-linejoin="miter"
     stroke-miterlimit="10"
     stroke-dasharray=""
     stroke-dashoffset="0"
     font-family="none"
     font-weight="none"
     font-size="none"
     text-anchor="none"
     style="mix-blend-mode: normal"
     id="g23">
    <path
       d="M0,172v-172h172v172z"
       fill="none"
       id="path2" />
    <g
       id="Layer_1">
      <path
         d="M92.71875,166.625h-76.59375c-7.39062,0 -13.4375,-6.04687 -13.4375,-13.4375v-134.375c0,-7.39062 6.04688,-13.4375 13.4375,-13.4375h70.68125c10.75,0 19.35,8.73438 19.35,19.35v128.4625c0,7.39063 -6.04687,13.4375 -13.4375,13.4375z"
         fill="#e8e8f9"
         id="path4" />
      <path
         d="M108.17188,79.81875l12.22812,-36.55c2.95625,-8.73438 -3.49375,-17.7375 -12.76562,-17.7375h-52.27187c-5.77812,0 -10.88438,3.7625 -12.76562,9.1375l-15.05,45.15c-1.34375,4.16563 -2.01562,8.46563 -2.01562,12.76563v60.60312c0,7.39063 6.04688,13.4375 13.4375,13.4375h53.75c7.39063,0 13.4375,-6.04687 13.4375,-13.4375v-60.60312c0,-4.43438 0.67188,-8.73438 2.01563,-12.76563z"
         fill="#ffffff"
         id="path6" />
      <path
         d="M2.6875,116.90625c-2.28437,0 -4.03125,-1.74688 -4.03125,-4.03125v-13.4375c0,-2.28437 1.74688,-4.03125 4.03125,-4.03125c2.28437,0 4.03125,1.74688 4.03125,4.03125v13.4375c0,2.28437 -1.74688,4.03125 -4.03125,4.03125z"
         fill="#000000"
         id="path8" />
      <path
         d="M73.23438,67.85938c-0.40313,0 -0.80625,0 -1.20937,-0.26875c-2.15,-0.67187 -3.225,-2.95625 -2.55313,-5.10625l5.375,-16.125c0.67188,-2.15 2.95625,-3.225 5.10625,-2.55313c2.15,0.67188 3.225,2.95625 2.55312,5.10625l-5.375,16.125c-0.67187,1.74688 -2.15,2.82188 -3.89687,2.82188z"
         fill="#000000"
         id="path10" />
      <path
         d="M121.87813,28.75625c-1.20937,-1.6125 -2.55312,-2.95625 -4.16562,-4.03125l-18.275,-18.275c-3.225,-3.225 -7.65937,-5.10625 -12.22812,-5.10625h-71.08438c-9.675,0 -17.46875,7.79375 -17.46875,17.46875v53.75c0,2.28437 1.74688,4.03125 4.03125,4.03125c2.28437,0 4.03125,-1.74688 4.03125,-4.03125v-53.75c0,-5.24062 4.16563,-9.40625 9.40625,-9.40625h71.08438c2.55313,0 4.8375,0.94063 6.71875,2.6875l9.40625,9.40625h-47.97187c-7.525,0 -14.24375,4.8375 -16.52813,11.95938l-15.05,45.01562c-1.47813,4.56875 -2.28438,9.27188 -2.28438,13.975v60.7375c0,9.675 7.79375,17.46875 17.46875,17.46875h53.75c9.675,0 17.46875,-7.79375 17.46875,-17.46875v-60.60312c0,-3.89688 0.67188,-7.79375 1.88125,-11.42187l12.22812,-36.55c1.74688,-5.50938 0.80625,-11.2875 -2.41875,-15.85625zM102.125,153.1875c0,5.24062 -4.16562,9.40625 -9.40625,9.40625h-53.75c-5.24063,0 -9.40625,-4.16563 -9.40625,-9.40625v-60.60312c0,-0.80625 0,-1.6125 0.13438,-2.55313h72.5625c0,0.80625 -0.13437,1.6125 -0.13437,2.55313zM116.6375,41.925l-12.22813,36.55c-0.40312,1.075 -0.67187,2.28438 -0.94062,3.49375h-72.29375c0.13437,-0.26875 0.13437,-0.5375 0.26875,-0.94062l15.05,-45.01563c1.34375,-3.89687 4.8375,-6.45 8.86875,-6.45h52.27187c3.09063,0 5.77813,1.47813 7.65938,3.89687c1.88125,2.41875 2.28437,5.64375 1.34375,8.46563z"
         fill="#000000"
         id="path12" />
      <path
         d="M65.84375,143.78125c-9.675,0 -17.46875,-7.79375 -17.46875,-17.46875c0,-9.675 7.79375,-17.46875 17.46875,-17.46875c9.675,0 17.46875,7.79375 17.46875,17.46875c0,9.675 -7.79375,17.46875 -17.46875,17.46875zM65.84375,116.90625c-5.24063,0 -9.40625,4.16562 -9.40625,9.40625c0,5.24062 4.16562,9.40625 9.40625,9.40625c5.24062,0 9.40625,-4.16563 9.40625,-9.40625c0,-5.24063 -4.16563,-9.40625 -9.40625,-9.40625z"
         fill="#000000"
         id="path14" />
      <path
         d="M166.625,130.20938h-18.8125c-2.28438,0 -4.03125,-1.74687 -4.03125,-4.03125c0,-2.28438 1.74687,-4.03125 4.03125,-4.03125h18.8125c2.28438,0 4.03125,1.74687 4.03125,4.03125c0,2.28437 -1.74687,4.03125 -4.03125,4.03125z"
         fill="#000000"
         id="path16" />
      <path
         d="M158.025,165.95313c-1.20938,1.88125 -3.62813,2.55312 -5.50938,1.34375l-13.84062,-8.33125c-1.20938,-0.80625 -2.01562,-2.15 -2.01562,-3.49375c0,-0.67187 0.13437,-1.47813 0.5375,-2.01562c1.20938,-1.88125 3.62813,-2.55313 5.50938,-1.34375l13.84062,8.33125c2.01563,1.075 2.55312,3.62813 1.47813,5.50938z"
         fill="#000000"
         id="path18" />
      <path
         d="M137.33125,98.76563c-0.40313,-0.67187 -0.5375,-1.34375 -0.5375,-2.01562c0,-1.34375 0.67188,-2.6875 2.01563,-3.49375l13.84063,-8.33125c1.88125,-1.20937 4.43437,-0.5375 5.50937,1.34375c1.20938,1.88125 0.5375,4.43438 -1.34375,5.50938l-13.84062,8.33125c-2.01562,1.20938 -4.56875,0.67188 -5.64375,-1.34375z"
         fill="#000000"
         id="path20" />
    </g>
  </g>
</svg>
