<svg version="1.1" xmlns="http://www.w3.org/2000/svg" xmlns:xlink="http://www.w3.org/1999/xlink" viewBox="0 0 172 172"><g fill="none" fill-rule="nonzero" stroke="none" stroke-width="1" stroke-linecap="butt" stroke-linejoin="miter" stroke-miterlimit="10" stroke-dasharray="" stroke-dashoffset="0" font-family="none" font-weight="none" font-size="none" text-anchor="none" style="mix-blend-mode: normal"><path d="M0,172v-172h172v172z" fill="none"></path><g><path d="M143.78125,67.1875c0,31.84687 -25.93438,57.78125 -57.78125,57.78125c-13.84063,0 -26.60625,-4.8375 -36.55,-13.03437c-13.03437,-10.61562 -21.23125,-26.74063 -21.23125,-44.74687c0,-31.84687 25.93437,-57.78125 57.78125,-57.78125c31.84687,0 57.78125,25.93438 57.78125,57.78125z" fill="#ffffff"></path><path d="M86,82.50625c-13.84063,0 -24.99375,-11.2875 -24.99375,-24.99375c0,-13.70625 11.15312,-25.12812 24.99375,-25.12812c13.84063,0 24.99375,11.2875 24.99375,24.99375c0,13.70625 -11.15312,25.12812 -24.99375,25.12812zM86,40.44688c-9.40625,0 -16.93125,7.65938 -16.93125,16.93125c0,9.27188 7.525,17.06562 16.93125,17.06562c9.40625,0 16.93125,-7.65937 16.93125,-16.93125c0,-9.27187 -7.525,-17.06562 -16.93125,-17.06562zM60.2,106.15625c-1.20937,0 -2.28438,-0.5375 -3.09062,-1.47812c-1.47812,-1.74688 -1.20938,-4.3 0.5375,-5.64375c7.92813,-6.71875 18.00625,-10.34687 28.35313,-10.34687c2.28437,0 4.03125,1.74688 4.03125,4.03125c0,2.28437 -1.74688,4.03125 -4.03125,4.03125c-8.46563,0 -16.79687,2.95625 -23.24687,8.46563c-0.80625,0.5375 -1.6125,0.94062 -2.55313,0.94062z" fill="#9b59b6"></path><path d="M111.53125,106.15625c-0.94062,0 -1.88125,-0.26875 -2.55313,-0.94062c-6.45,-5.375 -14.78125,-8.46563 -23.24687,-8.46563c-2.28438,0 -4.03125,-1.74688 -4.03125,-4.03125c0,-2.28437 1.74687,-4.03125 4.03125,-4.03125c10.34687,0 20.425,3.62812 28.4875,10.34687c1.74688,1.47813 1.88125,4.03125 0.5375,5.64375c-0.94063,0.94062 -2.01562,1.47812 -3.225,1.47812z" fill="#9b59b6"></path><path d="M86,129c-14.24375,0 -28.21875,-4.97187 -39.10312,-13.975c-14.5125,-11.825 -22.70937,-29.29375 -22.70937,-47.8375c0,-34.13125 27.68125,-61.8125 61.8125,-61.8125c34.13125,0 61.8125,27.68125 61.8125,61.8125c0,34.13125 -27.68125,61.8125 -61.8125,61.8125zM86,13.4375c-29.69687,0 -53.75,24.05313 -53.75,53.75c0,16.125 7.12188,31.30938 19.75313,41.65625c9.54062,7.79375 21.63438,12.09375 33.99687,12.09375c29.69687,0 53.75,-24.05313 53.75,-53.75c0,-29.69687 -24.05313,-53.75 -53.75,-53.75z" fill="#444b54"></path><path d="M126.3125,149.15625h-80.625c-2.28438,0 -4.03125,-1.74687 -4.03125,-4.03125c0,-2.28438 1.74687,-4.03125 4.03125,-4.03125h80.625c2.28438,0 4.03125,1.74687 4.03125,4.03125c0,2.28438 -1.74687,4.03125 -4.03125,4.03125z" fill="#9b59b6"></path><g fill="#9b59b6"><path d="M92.71875,169.3125h-33.59375c-2.28438,0 -4.03125,-1.74687 -4.03125,-4.03125c0,-2.28438 1.74687,-4.03125 4.03125,-4.03125h33.59375c2.28437,0 4.03125,1.74687 4.03125,4.03125c0,2.28438 -1.74688,4.03125 -4.03125,4.03125z"></path></g><g fill="#9b59b6"><path d="M112.875,169.3125c-1.075,0 -2.15,-0.40312 -2.82187,-1.20937c-0.80625,-0.80625 -1.20938,-1.74688 -1.20938,-2.82188c0,-0.26875 0,-0.5375 0.13437,-0.80625c0,-0.26875 0.13437,-0.5375 0.26875,-0.80625c0.13437,-0.26875 0.26875,-0.40312 0.40312,-0.67187c0.13437,-0.26875 0.26875,-0.40312 0.5375,-0.67187c1.47812,-1.47813 4.16562,-1.47813 5.64375,0c0.80625,0.80625 1.20938,1.74687 1.20938,2.82187c0,1.075 -0.40312,2.15 -1.20938,2.82188c-0.80625,0.94063 -1.88125,1.34375 -2.95625,1.34375z"></path></g></g></g></svg>