<svg version="1.1" xmlns="http://www.w3.org/2000/svg" xmlns:xlink="http://www.w3.org/1999/xlink" viewBox="0 0 172 172"><g fill="none" fill-rule="nonzero" stroke="none" stroke-width="1" stroke-linecap="butt" stroke-linejoin="miter" stroke-miterlimit="10" stroke-dasharray="" stroke-dashoffset="0" font-family="none" font-weight="none" font-size="none" text-anchor="none" style="mix-blend-mode: normal"><path d="M0,172v-172h172v172z" fill="none"></path><g fill="#3498db"><path d="M150.36383,103.845c-22.11633,21.51433 -56.35867,53.77867 -97.02233,39.5815c-18.31083,-6.39267 -32.336,-22.231 -37.07317,-41.17967c-10.03333,-40.13333 20.8335,-77.1635 58.96017,-77.1635c33.48983,0 56.717,26.23717 75.07083,44.08217c9.74667,9.47433 9.81117,25.198 0.0645,34.6795z" opacity="0.35"></path><circle cx="10.5" cy="9.5" transform="scale(7.16667,7.16667)" r="2.5"></circle><path d="M109.29167,105.78c-6.80833,11.75333 -19.565,19.63667 -34.04167,19.63667c-14.47667,0 -27.23333,-7.88333 -34.04167,-19.63667c2.50833,-4.65833 7.45333,-7.81167 13.18667,-7.81167h41.71c5.73333,0 10.67833,3.15333 13.18667,7.81167z"></path></g></g></svg>