<svg version="1.1" xmlns="http://www.w3.org/2000/svg" xmlns:xlink="http://www.w3.org/1999/xlink" viewBox="0 0 172 172"><g fill="none" fill-rule="nonzero" stroke="none" stroke-width="1" stroke-linecap="butt" stroke-linejoin="miter" stroke-miterlimit="10" stroke-dasharray="" stroke-dashoffset="0" font-family="none" font-weight="none" font-size="none" text-anchor="none" style="mix-blend-mode: normal"><path d="M0,172v-172h172v172z" fill="none"></path><g id="Layer_1"><path d="M116.90625,91.375c0,17.06562 -13.84063,30.90625 -30.90625,30.90625c-17.06562,0 -30.90625,-13.84063 -30.90625,-30.90625c0,-3.7625 0,-26.875 0,-26.875c0,0 17.60313,-4.03125 30.90625,-4.03125c11.55625,0 25.53125,6.71875 30.90625,16.125c0,0 0,9.27187 0,14.78125z" fill="#ffffff"></path><path d="M91.9125,166.625c-8.6,-15.05 -24.85938,-25.2625 -43.5375,-25.2625v0c-18.67812,0 -34.9375,10.2125 -43.5375,25.39687l0.13437,4.03125h86.80625z" fill="#ffffff"></path><circle cx="36" cy="75.5" transform="scale(1.34375,1.34375)" r="17.5" fill="#ffffff"></circle><path d="M48.375,128.86563c-15.18438,0 -27.54687,-12.3625 -27.54687,-27.54687c0,-12.49688 8.46562,-23.38125 20.425,-26.60625c2.15,-0.5375 4.3,0.67188 4.97188,2.82188c0.5375,2.15 -0.67187,4.3 -2.82188,4.97188c-8.46563,2.28437 -14.5125,9.94375 -14.5125,18.8125c0,10.75 8.73437,19.48438 19.48438,19.48438c2.55313,0 4.97188,-0.40313 7.25625,-1.34375c2.01563,-0.80625 4.43437,0.13437 5.24062,2.28437c0.80625,2.01563 -0.13437,4.43438 -2.28438,5.24063c-3.225,1.20937 -6.71875,1.88125 -10.2125,1.88125z" fill="#3498db"></path><path d="M4.8375,170.65625c-0.67187,0 -1.34375,-0.13438 -2.01563,-0.5375c-1.88125,-1.075 -2.55312,-3.49375 -1.47812,-5.50938c6.9875,-12.3625 18.8125,-21.63438 32.51875,-25.39687c2.15,-0.5375 4.43438,0.67188 4.97188,2.82187c0.5375,2.15 -0.67187,4.43437 -2.82188,4.97188c-11.55625,3.225 -21.63437,11.15312 -27.68125,21.63438c-0.67187,1.34375 -2.01562,2.01563 -3.49375,2.01563z" fill="#3498db"></path><path d="M80.0875,166.625c8.6,-15.18437 24.85937,-25.39687 43.5375,-25.39687v0c18.67812,0 34.9375,10.2125 43.5375,25.39687l-0.13437,4.03125h-86.80625z" fill="#ffffff"></path><circle cx="92" cy="75.5" transform="scale(1.34375,1.34375)" r="17.5" fill="#ffffff"></circle><path d="M123.625,128.86563c-3.49375,0 -6.9875,-0.67187 -10.2125,-2.01562c-2.01562,-0.80625 -3.09063,-3.225 -2.28438,-5.24063c0.80625,-2.01562 3.225,-3.09063 5.24063,-2.28437c2.28438,0.94062 4.70313,1.34375 7.25625,1.34375c10.75,0 19.48438,-8.73437 19.48438,-19.48437c0,-9.00313 -6.18125,-16.79687 -14.91563,-18.94688c-2.15,-0.5375 -3.49375,-2.6875 -2.95625,-4.8375c0.5375,-2.15 2.6875,-3.49375 4.8375,-2.95625c12.49687,2.95625 21.09688,13.975 21.09688,26.74062c0,15.45313 -12.3625,27.68125 -27.54688,27.68125z" fill="#3498db"></path><path d="M167.1625,170.65625c-1.34375,0 -2.82187,-0.67187 -3.49375,-2.01562c-5.9125,-10.48125 -15.99063,-18.40938 -27.68125,-21.63438c-2.15,-0.5375 -3.35937,-2.82187 -2.82187,-4.97187c0.5375,-2.15 2.82187,-3.35937 4.97188,-2.82188c13.57187,3.7625 25.39687,13.03438 32.51875,25.39687c1.075,1.88125 0.40313,4.43437 -1.47812,5.50938c-0.67188,0.40312 -1.34375,0.5375 -2.01563,0.5375z" fill="#3498db"></path><path d="M135.85313,166.0875c-9.94375,-17.33437 -28.4875,-29.025 -49.85313,-29.025v0c-21.36562,0 -39.90938,11.69063 -49.85312,29.025l0.13437,4.56875h99.4375z" fill="#ffffff"></path><path d="M36.14688,170.65625c-0.67187,0 -1.34375,-0.13438 -2.01562,-0.5375c-1.88125,-1.075 -2.55313,-3.49375 -1.47813,-5.50938c10.88438,-19.21562 31.30937,-31.04063 53.34688,-31.04063c22.0375,0 42.4625,11.95938 53.34688,31.04063c1.075,1.88125 0.40312,4.43437 -1.47813,5.50938c-1.88125,1.075 -4.43437,0.40312 -5.50937,-1.47813c-9.40625,-16.6625 -27.14375,-27.00938 -46.35938,-27.00938c-19.08125,0 -36.81875,10.34688 -46.35937,27.00938c-0.67188,1.34375 -2.01563,2.01563 -3.49375,2.01563z" fill="#000000"></path><path d="M120.9375,76.325c-0.94062,-18.14063 -15.85625,-32.51875 -34.13125,-32.51875h-45.15c-1.47812,0 -2.82187,0.80625 -3.49375,2.15c-0.67187,1.34375 -0.67187,2.95625 0.13437,4.16562c3.62812,5.50938 7.92813,10.48125 12.76563,14.64688v26.60625c0,19.21563 15.72187,34.9375 34.9375,34.9375c19.21563,0 34.9375,-15.72187 34.9375,-34.9375v-14.78125c0,-0.13438 0,-0.26875 0,-0.26875zM86,118.25c-14.78125,0 -26.875,-12.09375 -26.875,-26.875v-20.425c12.3625,8.33125 26.875,12.76563 41.925,12.76563c3.89688,0 7.92813,-0.26875 11.825,-0.94063v8.6c0,14.78125 -12.09375,26.875 -26.875,26.875z" fill="#000000"></path></g></g></svg>